<?xml version="1.0" standalone="no"?>
<!DOCTYPE svg PUBLIC "-//W3C//DTD SVG 1.1//EN" "http://www.w3.org/Graphics/SVG/1.1/DTD/svg11.dtd" >
<svg xmlns="http://www.w3.org/2000/svg" xmlns:xlink="http://www.w3.org/1999/xlink" version="1.1">
<metadata>
Created by FontForge 20170731 at Tue Feb 21 06:03:30 2023
 By Aleksey,,,
</metadata>
<defs>
<font id="TangerineRegular" horiz-adv-x="1212" >
  <font-face 
    font-family="Tangerine"
    font-weight="400"
    font-stretch="normal"
    units-per-em="2048"
    panose-1="0 0 0 0 0 0 0 0 0 0"
    ascent="1638"
    descent="-410"
    x-height="1058"
    cap-height="1432"
    bbox="-150 -938 2042 1965.1"
    underline-thickness="102"
    underline-position="-307"
    unicode-range="U+000A-20AC"
  />
<missing-glyph horiz-adv-x="1079" 
d="M102 1434h875v-1434h-875v1434zM160 1393l379 -633l381 633h-760zM514 717l-369 614v-1231zM541 674l-379 -631h758zM565 717l371 -621v1239z" />
    <glyph glyph-name=".notdef" horiz-adv-x="1079" 
d="M102 1434h875v-1434h-875v1434zM160 1393l379 -633l381 633h-760zM514 717l-369 614v-1231zM541 674l-379 -631h758zM565 717l371 -621v1239z" />
    <glyph glyph-name=".null" horiz-adv-x="0" 
 />
    <glyph glyph-name=".null" horiz-adv-x="0" 
 />
    <glyph glyph-name="nonmarkingreturn" horiz-adv-x="682" 
 />
    <glyph glyph-name="controlLF" unicode="&#xa;" horiz-adv-x="0" 
 />
    <glyph glyph-name="controlCR" unicode="&#xd;" horiz-adv-x="0" 
 />
    <glyph glyph-name="space" unicode=" " horiz-adv-x="696" 
 />
    <glyph glyph-name="exclam" unicode="!" horiz-adv-x="530" 
d="M281 445h-33l-137 981h315zM379 249q47 -47 47 -115q0 -67 -47.5 -114.5t-114.5 -47.5t-114.5 47.5t-47.5 114.5t48 114.5t115 47.5t114 -47z" />
    <glyph glyph-name="quotedbl" unicode="&#x22;" horiz-adv-x="772" 
d="M201 1314q42 0 71 -29q33 -33 30 -83q-8 -96 -26 -178l-55 -294h-43l-54 296q-18 87 -22 165q0 123 99 123zM642 1285q31 -36 28 -81q-1 -89 -20 -182l-58 -292h-48l-53 291q-18 84 -24 171q0 122 104 122q43 2 71 -29z" />
    <glyph glyph-name="numbersign" unicode="#" horiz-adv-x="1519" 
d="M1417 969h-447l-90 -297h433v-36h-444l-195 -641l-27 14l193 627h-218l-191 -627l-26 15l187 612h-490l1 36h500l93 297h-490v37h500l188 619l27 -14l-185 -605h215l185 605l27 -15l-182 -590h436v-37zM851 672l89 297h-215l-92 -297h218z" />
    <glyph glyph-name="dollar" unicode="$" horiz-adv-x="1196" 
d="M719 841q42 -18 71.5 -32t72 -38.5t71.5 -47.5t61.5 -57.5t52 -71.5t32.5 -86t13 -104q-1 -175 -126 -299t-346 -136v-173h-44v171q-128 1 -273.5 35.5t-201.5 63.5l77 342q31 -50 48 -76t55 -80.5t68 -88t69.5 -72.5t79 -61.5t78.5 -28.5l2 563l-97 41q-39 17 -64 29.5
t-67 36t-70 46t-61 57t-52.5 70.5t-33 84.5t-13.5 102.5q1 174 127 289.5t334 124.5l1 180h44l-1 -179q213 -6 401 -98l-64 -330q-23 26 -64.5 93.5t-77 124t-89 109t-106.5 65.5l-2 -530zM580 900l2 515q-122 -2 -191 -70t-69 -166q0 -52 20.5 -95.5t60.5 -77.5t80 -57
t97 -49zM621 -1q127 4 200 76t73 176q0 46 -16.5 86.5t-40.5 68.5t-63.5 55.5t-72 44.5t-78.5 38z" />
    <glyph glyph-name="percent" unicode="%" horiz-adv-x="1196" 
d="M322 985q-96 0 -158 59.5t-62 162.5q0 107 61.5 169t162.5 62q96 0 157 -59t61 -162q0 -108 -60.5 -170t-161.5 -62zM323 1423q-50 0 -77 -57t-27 -153q0 -99 27 -156t79 -57q50 0 76.5 56.5t26.5 153.5q0 98 -27 155.5t-78 57.5zM845 496q110 0 180 -67.5t69 -183.5
q-1 -122 -70 -192t-183 -70q-108 0 -178 67t-69 183q1 122 69 192.5t182 70.5zM844 0q57 0 87.5 64.5t30.5 173.5q0 111 -30 175.5t-89 64.5q-57 0 -87 -64t-30 -173q0 -111 30 -176t88 -65zM932 1426h45l-771 -1431h-45z" />
    <glyph glyph-name="ampersand" unicode="&#x26;" horiz-adv-x="1845" 
d="M1265 495l477 -495h-550l-151 178q-106 -98 -213.5 -143.5t-232.5 -45.5q-92 0 -180 29t-158 80.5t-112.5 131t-42.5 173.5q1 139 72.5 241t219.5 176q-62 63 -93.5 144.5t-28.5 169.5q1 188 123.5 307.5t315.5 119.5q83 0 166.5 -42.5t140 -118t56.5 -161.5
q0 -101 -76 -185.5t-180 -127.5q141 -117 268 -247q93 -93 150 -148q18 47 20.5 96.5t-5.5 89.5t-25 80.5t-33.5 68t-35.5 53.5t-27 34.5t-12 12.5l-3 3v30h504v-29l-6 -3q-36 -23 -69.5 -56.5t-68.5 -83.5t-55 -82t-58 -96q-58 -97 -97 -154zM711 1523q-66 0 -110.5 -35.5
t-62 -84t-17.5 -104.5q0 -95 61.5 -178.5t190.5 -164.5q74 33 99.5 112t25.5 193q0 105 -50 183.5t-137 78.5zM778 98q68 1 129 32.5t102 85.5q-154 180 -572 562q-40 -47 -40 -162q0 -96 25 -187t71.5 -165.5t120.5 -120t164 -45.5z" />
    <glyph glyph-name="quotesingle" unicode="'" horiz-adv-x="405" 
d="M275 1284q31 -34 28 -81q-1 -30 -6 -62q-5 -36 -20 -117l-55 -295h-44l-53 296q-17 83 -23 159q0 130 98 130q43 2 75 -30z" />
    <glyph glyph-name="quotesingle" unicode="&#x2018;" horiz-adv-x="405" 
d="M275 1284q31 -34 28 -81q-1 -30 -6 -62q-5 -36 -20 -117l-55 -295h-44l-53 296q-17 83 -23 159q0 130 98 130q43 2 75 -30z" />
    <glyph glyph-name="parenleft" unicode="(" horiz-adv-x="540" 
d="M438 1515q-247 -324 -249 -911q-1 -281 58.5 -517t184.5 -401l-26 -18q-305 389 -304 925q1 278 81.5 516t228.5 424z" />
    <glyph glyph-name="parenright" unicode=")" horiz-adv-x="540" 
d="M134 1533q305 -389 304 -925q-1 -278 -81.5 -516t-228.5 -424l-26 18q247 324 249 910q1 281 -58.5 517.5t-184.5 401.5z" />
    <glyph glyph-name="asterisk" unicode="*" horiz-adv-x="899" 
d="M777 931q11 -4 17 -19q5 -13 -3 -25l-18 -31q-5 -10 -21 -14q-13 -3 -24 5l-215 164q-16 12 -34 2q-17 -9 -15 -31l33 -268q2 -14 -8 -25q-9 -10 -23 -10h-36q-14 0 -23 10q-10 11 -8 25l35 268q3 21 -15 31t-34 -2l-216 -164q-11 -8 -24 -5q-16 4 -21 14l-17 31
q-7 14 -3 25q6 15 17 19l250 105q19 9 19 29q0 19 -19 28l-249 105q-11 4 -17 19q-4 11 3 25l18 31q5 11 20 14q14 3 25 -5l215 -164q16 -11 33 -2q19 11 16 31l-33 268q-2 15 7 25t23 10h37q14 0 23 -10t7 -25l-34 -268q-3 -21 15 -31t34 2l215 164q11 8 25 5q15 -3 20 -14
l18 -31q7 -14 3 -25q-5 -14 -18 -19l-249 -105q-19 -9 -19 -28q0 -20 19 -29z" />
    <glyph glyph-name="plus" unicode="+" horiz-adv-x="1009" 
d="M525 730h380v-39h-380l-1 -393h-43l1 393h-380l1 39h379l1 394h44z" />
    <glyph glyph-name="comma" unicode="," horiz-adv-x="524" 
d="M304 267q54 -36 85 -94t31 -123q0 -58 -28 -112t-74.5 -96.5t-97.5 -75t-108 -57.5l-10 14q62 35 96.5 87.5t34.5 111.5q-6 96 -80 159q-34 32 -37 79t27 84t76.5 43.5t84.5 -20.5z" />
    <glyph glyph-name="hyphen" unicode="-" horiz-adv-x="628" 
d="M103 593h422v-71h-423z" />
    <glyph glyph-name="period" unicode="." horiz-adv-x="468" 
d="M326 227q38 -38 38 -93q0 -53 -39 -92q-28 -28 -66.5 -36t-75.5 7t-59 48t-22 73t22.5 73t59.5 48t75.5 7.5t66.5 -35.5z" />
    <glyph glyph-name="slash" unicode="/" horiz-adv-x="833" 
d="M682 1533h49l-579 -1664h-50z" />
    <glyph glyph-name="zero" unicode="0" horiz-adv-x="1417" 
d="M1314 732q0 -164 -48 -303q-47 -138 -142 -246q-83 -93 -187 -140q-102 -46 -228 -46q-123 0 -229 47q-104 46 -188 139q-93 107 -141 246q-49 142 -49 303t49 303q49 141 141 247q82 91 187 137q106 47 230 47q123 0 229 -47t186 -137q95 -108 142 -246q48 -140 48 -304
zM928 193q61 121 61 539q0 417 -61 538q-35 69 -94 117t-134 48q-135 0 -220 -168q-63 -125 -63 -535q0 -409 63 -535q36 -73 94.5 -123t133.5 -50q134 0 220 169z" />
    <glyph glyph-name="one" unicode="1" horiz-adv-x="743" 
d="M639 0h-278l3 902q0 5 0.5 26.5t1 38t-1.5 43.5t-5.5 46.5t-11.5 41.5t-19.5 35t-30 21t-42 4.5t-56.5 -20t-73 -46.5q-15 9 -24 16l537 347v-1455z" />
    <glyph glyph-name="two" unicode="2" horiz-adv-x="1181" 
d="M114 1075q3 8 8 21.5t23.5 53t40 75.5t58 80t76.5 75.5t95.5 53t115.5 21.5q177 0 291 -120q113 -119 113 -301q0 -67 -19 -128q-28 -89 -94 -163l-455 -514h210q7 0 19 0.5t49.5 6t74 14t87 27.5t94.5 44.5t90 67t80 92.5l7 -2l-145 -479h-831v10q242 215 377 441
q138 229 138 425q0 152 -71 246q-33 43 -82 68t-102 26q-70 2 -129 -39q-53 -38 -101 -110z" />
    <glyph glyph-name="three" unicode="3" horiz-adv-x="1116" 
d="M493 0h-37q-97 0 -185.5 23t-128.5 46l-40 23l18 316h14q7 -14 19.5 -36.5t49.5 -83t72.5 -109t81.5 -94.5t84 -59q1 0 2 -0.5t2 -0.5q35 -7 65 -0.5t53.5 22.5t40 32.5t25.5 28.5l9 13q41 58 57.5 138t2.5 161t-51 152t-107.5 117.5t-161.5 51.5v27q160 4 216 120
q44 93 7 209q-34 105 -111 152q-100 62 -210 -21q-35 -26 -68 -67l-14 13q113 219 296 273q144 43 280 -26q111 -57 157 -160q59 -128 -18 -252q-61 -98 -199 -172q91 -34 156.5 -90t98.5 -120.5t41.5 -137t-9.5 -141.5t-61 -132.5t-105.5 -111t-151 -76t-190.5 -28.5z" />
    <glyph glyph-name="four" unicode="4" horiz-adv-x="1234" 
d="M970 0h-320l2 351h-550v92l868 1017v-161v-772h162l1 -176h-163v-351zM652 1010l-416 -479l416 -4v483z" />
    <glyph glyph-name="five" unicode="5" horiz-adv-x="1103" 
d="M191 1460h528h226l-5 -232l-718 6l-10 -257q386 26 603 -140q153 -117 182 -294q27 -167 -65 -313q-97 -156 -285 -216q-90 -28 -191 -31q-97 0 -185.5 23t-128.5 46l-40 23l18 316h14q7 -13 19 -35t48 -80t71 -104.5t80.5 -91.5t83.5 -58h2l2 -1q72 -25 143 5.5
t101 100.5q63 150 38.5 265.5t-109.5 191.5t-205 110.5t-248 23.5z" />
    <glyph glyph-name="six" unicode="6" horiz-adv-x="1169" 
d="M605 -17q-93 0 -173 34q-83 35 -149 100q-88 88 -134 208q-47 123 -47 265q0 303 204 539q200 231 547 333l6 -15q-138 -80 -238 -223q-106 -151 -161 -359l-12 -48l40 25q50 31 93 44q48 14 97 14q174 0 281 -119q108 -119 108 -308q0 -212 -131 -351t-331 -139z
M575 821q-36 0 -72 -16q-37 -17 -70 -47l-5 -5l-1 -7q-11 -83 -17 -153q-6 -73 -6 -144q0 -216 42 -319q45 -110 146 -110q96 0 144 109q45 102 45 298q0 201 -47 294q-50 100 -159 100z" />
    <glyph glyph-name="seven" unicode="7" horiz-adv-x="1124" 
d="M177 6q38 140 143 333q115 211 366 573l188 308h-397q-131 0 -221 -44q-83 -40 -140 -125l-14 7q14 39 23 73.5t21 70.5q24 76 36 116q19 64 65.5 103t102.5 39h672q-218 -440 -355 -814q-136 -372 -177 -640h-313z" />
    <glyph glyph-name="eight" unicode="8" horiz-adv-x="1220" 
d="M608 -17q-222 0 -364 113.5t-142 299.5q0 102 67 200t167 177l17 13l-16 16q-80 55 -119 103.5t-39 121.5q0 195 132 315t347 120q167 0 284 -100.5t117 -222.5q0 -46 -12 -84t-39.5 -73.5t-50 -58t-65.5 -60.5l-18 -16l20 -14q73 -51 119 -99t75.5 -117t29.5 -154
q0 -132 -67.5 -242.5t-185 -174t-257.5 -63.5zM397 758q-61 -90 -61 -321q0 -100 32.5 -196.5t97.5 -164.5t146 -68q60 0 109 44t73 104t24 117q0 73 -18.5 133.5t-64 122.5t-130 119t-208.5 110zM660 1437q-76 0 -121.5 -71.5t-45.5 -173.5q0 -45 14 -79.5t52 -68.5
t76.5 -59t115.5 -69l62 -36l9 18q31 65 42 106t11 98q0 146 -57.5 240.5t-157.5 94.5z" />
    <glyph glyph-name="nine" unicode="9" horiz-adv-x="1169" 
d="M564 1461q93 0 173 -34q81 -34 148 -100q90 -90 135 -208q47 -123 47 -265q0 -303 -204 -539q-199 -230 -547 -332l-6 14q138 80 238 223q106 151 161 359l12 49l-40 -26q-47 -30 -93 -43q-48 -14 -97 -14q-175 0 -281 118q-108 119 -108 309q0 211 131 350t331 139z
M594 623q33 0 72 17q39 18 70 46l5 5l1 7q11 83 17 153q6 74 6 144q0 215 -42 319q-45 110 -146 110q-96 0 -144 -109q-45 -102 -45 -298q0 -201 47 -294q50 -100 159 -100z" />
    <glyph glyph-name="colon" unicode=":" horiz-adv-x="471" 
d="M184 255q37 15 75.5 7.5t66.5 -35.5q38 -38 37.5 -92.5t-38.5 -92.5q-29 -28 -67 -36t-75 7t-59 48t-22 73t22.5 73t59.5 48zM328 744q-38 -38 -92.5 -38t-92.5 38q-28 28 -35.5 67t7.5 76t48 58.5t73 21.5t73 -21.5t48 -58.5t7 -76t-36 -67z" />
    <glyph glyph-name="semicolon" unicode=";" horiz-adv-x="604" 
d="M384 267q54 -36 85 -94t31 -123q0 -58 -28 -112t-74.5 -96.5t-97.5 -75t-108 -57.5l-9 14q62 35 96 87.5t34 111.5q-6 96 -80 159q-34 32 -37 79t27 84t76.5 43.5t84.5 -20.5zM325 670q-38 -38 -92.5 -38t-92.5 38q-28 28 -35 67t8 76t48 59t73 22t72.5 -22t47.5 -59
t7 -76t-36 -67z" />
    <glyph glyph-name="less" unicode="&#x3c;" horiz-adv-x="1009" 
d="M906 1065l-747 -354l745 -354l-20 -36l-782 372l1 35l783 372z" />
    <glyph glyph-name="equal" unicode="=" horiz-adv-x="1009" 
d="M102 549l1 40h802v-40h-803zM103 872h803v-40h-803v40z" />
    <glyph glyph-name="greater" unicode="&#x3e;" horiz-adv-x="1009" 
d="M124 1100l782 -372v-35l-784 -372l-20 36l747 354l-744 354z" />
    <glyph glyph-name="question" unicode="?" horiz-adv-x="1193" 
d="M524 227q38 38 92.5 38t92.5 -38q28 -28 35.5 -66.5t-7.5 -75.5t-48 -59.5t-73 -22.5t-73 22t-48 59t-7 76t36 67zM753 1396q177 -50 270 -166t60 -267q-10 -46 -43 -84.5t-76.5 -66t-93.5 -55t-95 -59t-79 -70t-48 -96.5t-1 -131l-48 5q-27 42 -40 83.5t-15 74.5
t9.5 69.5t22.5 60t34.5 54.5t35.5 44.5t35 37.5h1q1 1 2.5 4t2.5 4q8 12 12 19q16 26 12 53l-1 2v2q-3 10 -8 16l-4 4q-18 15 -43 23l-1 1q-38 12 -127.5 24t-163 22.5t-146 44.5t-99.5 90q-41 85 23.5 158.5t214.5 110.5q18 4 52 10q100 18 203 4q2 0 6 -0.5t6 -0.5
q68 -8 130 -25zM787 1046q28 126 -2.5 213.5t-112.5 123.5q-34 15 -78 20q-3 1 -6 1h-8h-5q-21 0 -41.5 -1.5t-52.5 -10.5t-56 -24.5t-42.5 -47t-20.5 -74.5q-2 -32 14 -61q11 -22 29.5 -42t37 -33t48 -27.5t49 -22t53 -20t48.5 -18.5q1 0 4.5 -1.5t5.5 -2.5q1 -1 3.5 -2.5
t4.5 -1.5q25 -12 42.5 -27t24.5 -27t10 -24.5t2.5 -18.5t-1.5 -10q6 10 8 16q1 2 3 5.5t3.5 6.5t2.5 6q19 44 33 105z" />
    <glyph glyph-name="at" unicode="@" horiz-adv-x="1843" 
d="M1141 1564q111 -5 210.5 -40t178.5 -99t131.5 -154.5t70.5 -206t-4 -253.5q-20 -122 -63.5 -217.5t-94 -151t-110.5 -92t-108 -49.5t-91 -13q-72 0 -103 25t-23 89q-39 -56 -100 -86t-128 -28q-120 0 -198.5 88t-71.5 235q9 205 134.5 350.5t305.5 144.5q46 -1 84.5 -9
t60 -19t36.5 -22t20 -18l5 -8l18 56l88 3q-133 -567 -151 -644q-25 -118 71 -118q33 0 69.5 9.5t87 41t93.5 82t84 142.5t63 211q11 60 11.5 121t-11 127.5t-36.5 127t-69 117t-104 99.5t-146 72t-191 38q-247 20 -445 -76t-319.5 -286.5t-152.5 -448.5q-2 -10 -3.5 -26.5
t-2.5 -68.5t3.5 -103t21 -121.5t44.5 -132t79.5 -126.5t120 -113.5t171 -85t228.5 -47.5q158 -16 295 29t198 96l11 -13q-6 -6 -18.5 -15.5t-58.5 -34t-100 -43t-144 -34t-189 -15.5q-70 0 -145 13t-157 43t-156.5 74t-141 111.5t-112.5 150t-68.5 195t-12.5 241.5
q14 179 77 328t161 253.5t226 176t272.5 103t298.5 25.5zM1142 441l104 439q3 10 3 27t-3 40.5t-13.5 47t-27 44t-45.5 33t-66 12.5q-108 0 -186 -93.5t-107 -276.5q-15 -82 -11.5 -142.5t15.5 -101.5t37.5 -67.5t54 -39t66.5 -16.5q55 -5 103.5 20.5t75.5 73.5z" />
    <glyph glyph-name="A" unicode="A" horiz-adv-x="1247" 
d="M1236 0h-330l-152 502l-465 -11q-23 -72 -20 -126.5t26 -111t49 -96.5t49 -83.5t26 -73.5h-415q119 216 301 631l362 842h74zM302 524l439 11l-189 596l-212 -515q-23 -53 -38 -92z" />
    <glyph glyph-name="B" unicode="B" horiz-adv-x="1370" 
d="M1297 395q0 -186 -156.5 -290.5t-441.5 -104.5h-566v1432h572q247 0 381.5 -84t134.5 -241q0 -57 -26 -107t-69.5 -86.5t-102.5 -65.5t-121.5 -47t-129.5 -28v-4q105 -6 198.5 -33t167 -72.5t116.5 -115t43 -153.5zM446 1400v-635h147q124 0 212.5 88.5t88.5 222.5
q0 92 -27.5 163t-91.5 116t-158 45h-171zM446 33h196q315 19 315 333q0 157 -99 262.5t-237 105.5h-175v-701z" />
    <glyph glyph-name="C" unicode="C" horiz-adv-x="1456" 
d="M1389 382l24 -14q-101 -165 -281.5 -278.5t-373.5 -113.5q-151 0 -277 49t-217 140t-141.5 228t-50.5 307q0 179 55 323t153 238t232.5 144t294.5 50q151 -2 290.5 -62t246.5 -168l-245 -218q-16 34 -36.5 88t-35 95t-37.5 87.5t-47 76.5t-61 50t-81 20
q-192 0 -289.5 -175t-99.5 -478q-1 -345 129 -511t353 -166q116 0 261.5 78.5t233.5 209.5z" />
    <glyph glyph-name="D" unicode="D" horiz-adv-x="1472" 
d="M1402 728q0 -349 -208 -538.5t-610 -189.5h-451v1432h510q360 0 559.5 -180t199.5 -524zM643 32q223 0 321 173.5t98 516.5q0 155 -25.5 277.5t-76.5 213t-135 139t-195 48.5h-184v-1368h197z" />
    <glyph glyph-name="E" unicode="E" horiz-adv-x="1142" 
d="M1081 284l-45 -284h-903v1432h883l32 -267h-4q-16 10 -69.5 43.5t-77 47t-71.5 41.5t-79 41t-72.5 29t-77.5 22.5t-71 6.5h-80l2 -585v-24q59 6 114 24.5t92 41t65.5 44t42.5 35.5l13 15h8l2 -347h-6q-42 52 -116.5 87t-128.5 45.5t-86 9.5l-2 -706h90q48 0 104.5 15.5
t104.5 36t113.5 58.5t108 65t110.5 73h4z" />
    <glyph glyph-name="F" unicode="F" horiz-adv-x="1060" 
d="M446 1396v-630q48 2 98 19t86.5 40t66 45.5t45.5 37.5l15 16h8l3 -347h-7q-70 68 -162 104.5t-153 37.5v-719h-313v1432h858l29 -264h-4q-13 8 -69 43t-77 47t-70.5 40.5t-78.5 40.5t-71 28.5t-78 22.5t-71 6h-55z" />
    <glyph glyph-name="G" unicode="G" horiz-adv-x="1579" 
d="M1492 663h-82v-663h-34l-51 67q-176 -91 -449 -91q-187 0 -333.5 44t-252.5 132.5t-162 228.5t-56 325q0 141 38 261.5t107.5 209.5t165.5 152t214 94.5t252 31.5q156 0 300 -60t254 -170l-251 -218q-15 32 -33.5 86t-32 94.5t-37.5 87.5t-50 77.5t-68 51t-94 20.5
q-214 0 -317 -176t-108 -528q-5 -343 121.5 -525.5t350.5 -182.5h3q112 2 189.5 82t76.5 192v377h-232v35h571v-35z" />
    <glyph glyph-name="H" unicode="H" horiz-adv-x="1454" 
d="M1005 1432h313v-1432h-313v703h-559v-703h-313v1432h313v-694h559v694z" />
    <glyph glyph-name="I" unicode="I" horiz-adv-x="581" 
d="M446 0h-313v1432h313v-1432z" />
    <glyph glyph-name="J" unicode="J" horiz-adv-x="579" 
d="M144 1432h310v-1033q0 -350 -159 -522t-445 -172v24q44 6 80 18t64 28.5t50 38.5t37.5 48.5t26.5 57.5t18 66.5t11 74.5t5 82t2 90t0 96v54v1049z" />
    <glyph glyph-name="K" unicode="K" horiz-adv-x="1402" 
d="M798 946l-69 -65l650 -881h-404l-465 687l-63 -63l-1 -624h-313v1432h313l1 -769l48 47l277 267q59 57 95 115t48 110.5t14.5 89.5t-1 81.5t-2.5 58.5h465v-4q-125 -90 -193 -141t-187.5 -150t-212.5 -191z" />
    <glyph glyph-name="L" unicode="L" horiz-adv-x="1040" 
d="M1014 367l-68 -367h-813v1432h313v-1397h27q29 0 64.5 11.5t84.5 40.5t85 51.5t102 72.5t96.5 73.5t105.5 82.5h3z" />
    <glyph glyph-name="M" unicode="M" horiz-adv-x="1585" 
d="M1501 0h-306l1 1286l-483 -973h-8l-578 906l-2 -592q4 -101 41.5 -200.5t81 -165t86.5 -139t53 -122.5h-324q6 61 10.5 117t7 91.5t3.5 98.5t1.5 87t0.5 111.5v121.5l7 665l11 134v6h261l492 -723l355 723h279z" />
    <glyph glyph-name="N" unicode="N" horiz-adv-x="1396" 
d="M925 1432h382q-61 -259 -61 -626v-830h-25l-1069 1226v-577q0 -77 24 -154t60.5 -140.5t74 -120.5t69.5 -112.5t42 -97.5h-371q61 259 61 625v628l2 179v6l236 -6l857 -970v344q0 77 -25.5 154.5t-63.5 141t-77.5 120t-72.5 112.5t-43 98z" />
    <glyph glyph-name="O" unicode="O" horiz-adv-x="1667" 
d="M1497 1090q107 -208 101 -401.5t-118 -358.5t-309 -271q-141 -76 -284.5 -98t-275.5 10t-248 126.5t-196 243.5q-107 208 -101 402t118 359t309 271q141 76 284.5 98t275.5 -10.5t248 -127t196 -243.5zM1175 97q122 66 163 188t6.5 279t-136.5 346q-156 288 -347 405.5
t-369 21.5q-123 -66 -164 -189t-6.5 -280t136.5 -345q156 -288 347 -405.5t370 -20.5z" />
    <glyph glyph-name="P" unicode="P" horiz-adv-x="1253" 
d="M1206 1031q0 -197 -158 -306.5t-421 -109.5h-20l-161 -2v-613h-313v1432h494q276 0 427.5 -105.5t151.5 -295.5zM608 649q131 17 201 106.5t70 251.5q0 175 -83 284t-234 109h-116v-751h152h10z" />
    <glyph glyph-name="Q" unicode="Q" horiz-adv-x="1673" 
d="M1402 -87q9 -54 0.5 -96t-30.5 -67t-42 -38.5t-44 -21.5l-484 -80q-62 -11 -102.5 -19t-87.5 -19.5t-76 -23t-58.5 -27.5t-45 -34t-25 -42t-8.5 -53q1 -37 30 -64.5t65 -40.5t98 -35t101 -41l-140 -149q-86 61 -134.5 153.5t-49.5 197.5q-5 178 110.5 314t317.5 177
l371 59l27 4.5t24 4.5t22 5.5t18 6.5t16 8.5t12 10.5t9.5 13.5t5 17t2 21t-2.5 25.5q-4 22 -8 32q-213 -140 -469 -135q-212 -1 -382.5 87t-270 254t-99.5 382q0 158 58.5 298t160 240t246 158.5t309.5 59.5q159 1 296.5 -49t238.5 -142t159 -229t58 -303q0 -184 -79 -350
t-215 -263q78 -90 98 -207zM845 9q137 0 232 93.5t138 248t43 359.5q0 197 -49.5 358t-149 259t-231.5 98q-83 0 -152 -39.5t-117 -106.5t-81 -157t-48.5 -190.5t-15.5 -208.5q0 -198 49.5 -358.5t149 -258t232.5 -97.5z" />
    <glyph glyph-name="R" unicode="R" horiz-adv-x="1267" 
d="M870 699l334 -699h-362l-261 676q-44 2 -72 2h-63v-678h-313v1432h451q310 0 467.5 -101.5t143.5 -303.5q-9 -127 -90 -203t-235 -125zM894 1060q0 154 -103 247t-271 93h-74v-671h55h56h38q139 0 219 88.5t80 242.5z" />
    <glyph glyph-name="S" unicode="S" horiz-adv-x="1204" 
d="M1133 427q0 -84 -36.5 -165t-99 -144.5t-154 -102.5t-192.5 -39q-263 2 -513 66l23 350q41 -36 97.5 -94t99 -101t93.5 -86t103.5 -66.5t105.5 -23.5q100 0 158.5 62t58.5 159q0 69 -42 142.5t-99 112.5q-65 45 -227.5 114.5t-225.5 105.5q-46 26 -71.5 42.5t-56 43
t-45.5 53t-25.5 65t-10.5 87.5q0 90 36.5 172.5t98.5 143.5t150 97.5t186 36.5q88 0 195.5 -15t171.5 -31l64 -15l-4 -354h-12q-25 75 -99.5 158.5t-169.5 143t-170 62.5q-97 4 -154.5 -44.5t-57.5 -145.5q0 -96 54.5 -158t155.5 -108q50 -23 139 -55.5t166 -65.5t134 -71
q85 -53 132 -142t43 -190z" />
    <glyph glyph-name="T" unicode="T" horiz-adv-x="1224" 
d="M1195 1078h-4q-47 40 -109.5 104t-102.5 106.5t-89.5 75t-90.5 32.5h-32v-1396h-312v1396h-30q-41 0 -90.5 -33t-90.5 -75t-103.5 -106t-109.5 -104h-4l29 354h1110z" />
    <glyph glyph-name="U" unicode="U" horiz-adv-x="1349" 
d="M1269 1432q-61 -259 -61 -626v-289q0 -267 -129 -404t-404 -137q-140 0 -247.5 49t-175 138t-101.5 210.5t-34 270.5v788h312v-791q-4 -296 92.5 -446t273.5 -150q175 0 274.5 115.5t99.5 346.5v299q0 94 -36.5 192t-81 165.5t-89 143.5t-56.5 125h363z" />
    <glyph glyph-name="V" unicode="V" horiz-adv-x="1269" 
d="M1265 1432q-130 -237 -301 -632l-364 -841h-8l-584 1473h340l396 -1045l184 429q40 92 50 175t-4.5 145.5t-35.5 112.5t-42.5 100t-24.5 84z" />
    <glyph glyph-name="W" unicode="W" horiz-adv-x="1832" 
d="M1823 1432q-149 -315 -258 -630l-307 -843h-8l-327 908l-27 74l-362 -982h-7l-513 1473h337l325 -978l199 542l-137 437l323 -1h7l330 -974l130 356q31 87 33.5 169.5t-16 146t-42 117t-43 103.5t-18.5 83z" />
    <glyph glyph-name="X" unicode="X" horiz-adv-x="1406" 
d="M1404 -1h-383l-405 672l-120 -168q-49 -70 -65.5 -135.5t-4.5 -117t31.5 -93t41 -85t24.5 -72.5h-513q221 194 457 525l123 175l-478 732h391l292 -507l8 9q48 68 71.5 131.5t24.5 115t-4.5 93.5t-12 85.5t-3.5 72.5h390q-246 -243 -435 -519l-14 -20z" />
    <glyph glyph-name="Y" unicode="Y" horiz-adv-x="1218" 
d="M1214 1432q-65 -108 -171 -319t-163 -315l-118 -216v-582h-313v541l-447 891h356l390 -795l99 179q40 74 53 152t3.5 144.5t-24.5 124t-28 110.5t-9 85h372z" />
    <glyph glyph-name="Z" unicode="Z" horiz-adv-x="1273" 
d="M1231 343l-65 -343h-1058v8l677 1388h-87q-51 0 -104 -8.5t-95 -19.5t-92.5 -32.5t-82.5 -37t-79.5 -44.5t-70 -43.5t-67.5 -45.5t-58 -40h-4l51 307h1054v-8l-677 -1388h118q68 0 134.5 15t117 37t108.5 57.5t96 64t93 70t87 63.5h4z" />
    <glyph glyph-name="bracketleft" unicode="[" horiz-adv-x="565" 
d="M462 1509h-306l-6 -1817h306v-24h-354l6 1865h354v-24z" />
    <glyph glyph-name="backslash" unicode="\" horiz-adv-x="823" 
d="M152 1533l568 -1664h-49l-569 1664h50z" />
    <glyph glyph-name="bracketright" unicode="]" horiz-adv-x="565" 
d="M108 1533h354l-6 -1865h-354v24h307l6 1817h-307v24z" />
    <glyph glyph-name="asciicircum" unicode="^" horiz-adv-x="1052" 
d="M531 1450l417 -599l-35 -16l-386 555l-389 -555l-36 16l421 599h8z" />
    <glyph glyph-name="underscore" unicode="_" horiz-adv-x="954" 
d="M103 -131h747v-43h-748z" />
    <glyph glyph-name="grave" unicode="`" horiz-adv-x="598" 
d="M326 1568l169 -347l-14 -10l-379 357h224z" />
    <glyph glyph-name="a" unicode="a" horiz-adv-x="1216" 
d="M1183 59v-12q-100 -62 -221 -62q-141 1 -186 102q-156 -113 -348 -111q-187 0 -299.5 90.5t-112.5 240.5q0 69 30 129.5t77.5 103.5t105 80.5t115.5 68.5t105.5 60t77.5 61.5t30 66.5q0 25 -14.5 44.5t-38.5 26.5q-1 0 -4 1q-7 2 -21 4h-1q-34 5 -67 0q-56 -7 -107 -42
l-40 52q74 74 174.5 106.5t203.5 16.5q176 -24 291 -161t121 -342l-4 -377q0 -36 0.5 -52.5t5 -39.5t14 -33t27.5 -17.5t46 -7.5q21 0 40 3zM615 1060q-67 9 -122 -80q56 -7 91.5 -38.5t35.5 -84.5q0 -40 -21.5 -81t-54 -74.5t-70 -75.5t-70 -82t-54 -95.5t-21.5 -114.5
q0 -112 69.5 -179.5t186.5 -67.5q94 0 176 47v2l3 491q0 62 -1.5 104t-5 90t-10 78.5t-17.5 62t-26.5 50t-37.5 31.5t-51 17z" />
    <glyph glyph-name="b" unicode="b" horiz-adv-x="1327" 
d="M1250 551q0 -123 -49.5 -232t-130.5 -183t-185 -117t-213 -43q-239 0 -382 130l-112 -124h-57v1528h13q53 -7 94 -23l12 -4l15 -5h1q72 -38 114 -106.5t42 -149.5v-301q148 161 334 161q95 0 186 -39.5t161.5 -108t113.5 -169t43 -214.5zM634 10q130 0 218.5 141
t88.5 378q0 125 -24 218.5t-65.5 147t-91.5 79t-108 25.5q-127 0 -240 -130v-658q0 -87 68.5 -144t153.5 -57z" />
    <glyph glyph-name="c" unicode="c" horiz-adv-x="1114" 
d="M1093 305q-215 -329 -514 -329q-217 0 -361 147.5t-144 389.5q0 127 43.5 235t118.5 180.5t176 113t214 40.5q252 0 405 -173l-164 -145q-23 39 -50 100t-43 96.5t-47.5 63.5t-74.5 28q-124 0 -196 -124.5t-72 -343.5q0 -243 87.5 -370t235.5 -122q63 2 116 19.5t97 50
t77.5 68.5t71.5 89z" />
    <glyph glyph-name="d" unicode="d" horiz-adv-x="1296" 
d="M912 0l4 144q-152 -168 -341 -168q-95 0 -185.5 39.5t-160.5 108t-112.5 169t-42.5 214.5q0 123 49 232t129.5 183t184.5 117t213 43q145 5 262 -87v516q132 0 220 -99q71 -81 69 -192v-766v-125q0 -48 2 -167t2 -162h-293zM912 848q0 1 -1 3t-1 3q-29 89 -87 142.5
t-135 53.5q-130 0 -219 -141.5t-89 -379.5q0 -125 25 -218t68 -145.5t94.5 -77.5t110.5 -25q124 0 234 128v657z" />
    <glyph glyph-name="e" unicode="e" horiz-adv-x="1165" 
d="M431 384q-11 -38 0 -76q3 -18 7 -28q0 -2 2 -5.5t2 -5.5v-1q83 -175 265 -175q84 0 165.5 43.5t147.5 133.5l23 -14q-183 -279 -464 -279q-217 0 -361 147t-144 389q0 215 116.5 363t301.5 191q66 15 134 15q2 0 6.5 -0.5t6.5 -0.5q105 3 200 -36q26 -10 49 -22
q140 -73 188.5 -185t-10.5 -224q-31 -60 -87 -95.5t-122 -46.5t-129.5 -13t-129.5 -4.5t-101 -12.5l-1 -1q-29 -8 -48 -26q-3 -3 -4 -5q-8 -9 -12 -21q-1 -1 -1 -5zM404 384q0 9 2.5 20.5t10.5 34t30.5 44.5t56.5 38q1 1 4 2t5 2q1 0 5 1.5t6 2.5q15 6 52 18.5t57 20
t52.5 23t53.5 31.5t44 40.5t38 53.5q19 36 26 84q7 60 -4.5 106.5t-31.5 71.5t-49.5 42.5t-49.5 23t-41 7.5h-5q-2 0 -4 0.5t-4 0.5h-6q-43 0 -81 -16q-89 -38 -138 -155.5t-49 -296.5q0 -71 11 -150q2 -16 4 -26q1 -8 5 -24z" />
    <glyph glyph-name="f" unicode="f" horiz-adv-x="702" 
d="M740 1458v-35q-282 75 -282 -251l2 -114h265v-43h-265v-1015h-291v1015h-128v43h128l-2 77q0 122 76.5 212.5t204 121t292.5 -10.5z" />
    <glyph glyph-name="g" unicode="g" horiz-adv-x="1140" 
d="M897 977l17 -14q54 -47 83.5 -113.5t28.5 -138.5q0 -84 -40 -158.5t-110 -120.5q49 -38 63 -83.5t-16 -96.5q-26 -39 -77.5 -62t-111.5 -36t-122 -28.5t-122 -52t-99 -94.5q-63 -93 -43 -188t118 -160q100 -66 221 -60h1h5q2 0 6 0.5t6 0.5q7 0 19 2q40 5 74 17.5t67 43
t48 75t7.5 119.5t-45.5 171h224q-1 -27 -4.5 -56t-14.5 -73.5t-28.5 -85t-50 -84.5t-75 -77.5t-107 -59t-142.5 -34.5q-1 0 -4.5 -1t-5.5 -1h-6q-4 -1 -13 -1q-1 0 -3.5 -0.5t-3.5 -0.5h-3q-1 0 -4.5 -0.5t-5.5 -0.5h-1v1q-195 -8 -353 100q-156 104 -199 242t40 261
q52 79 142 112.5t184 31.5t183.5 -11t161 -2.5t96.5 44.5q18 26 10.5 57t-41.5 55q-138 -78 -295 -75q-110 -2 -212 36l-34 13q-101 45 -157.5 127t-56.5 190q0 164 134.5 268t337.5 104q75 2 157 -21t151 -63q88 166 244 175v-200q-6 2 -16 5.5t-39 10.5t-55.5 10t-58.5 -1
t-54 -18zM564 371q101 0 150 87.5t49 246.5t-53 251.5t-150 92.5q-198 0 -198 -338q0 -158 52 -249t150 -91z" />
    <glyph glyph-name="h" unicode="h" horiz-adv-x="1228" 
d="M1114 706v-706h-291v734q0 26 -1 45t-6 53.5t-17 58.5t-31 49t-52 38t-76 13q-14 0 -28.5 -4t-26.5 -9t-28.5 -16.5t-26.5 -19t-28.5 -25t-27 -25.5t-29.5 -29l-29 -29l-4 -4v-830h-291v1511h33q94 -10 165 -74t91 -157q0 -3 1 -11t1 -11v-389q93 97 138 132
q106 81 216 81q169 0 258.5 -93t89.5 -283z" />
    <glyph glyph-name="i" unicode="i" horiz-adv-x="534" 
d="M238 1223q-43 8 -74.5 39.5t-39.5 74.5q-10 47 10.5 90t62.5 66t89.5 16t81.5 -41t41 -81.5t-15 -89.5q-23 -42 -66 -63t-90 -11zM122 1059q119 0 204 -85q84 -84 84 -204v-768h-288v1057z" />
    <glyph glyph-name="j" unicode="j" horiz-adv-x="534" 
d="M121 1058q119 0 203.5 -85t84.5 -204v-765l-1 -1v-2q-6 -82 -43 -153t-91 -120t-123 -87t-136 -58.5t-134 -30.5l-8 23q115 29 180.5 143.5t67.5 282.5v1057zM265 1220q-60 0 -103 43t-43 102q0 60 43 103t103 43t102.5 -43t42.5 -103t-42.5 -102.5t-102.5 -42.5z" />
    <glyph glyph-name="k" unicode="k" horiz-adv-x="1204" 
d="M1157 88q0 -48 -11 -88h-350q25 57 24 116q0 70 -27.5 133.5t-66.5 111t-78 91.5t-66.5 91.5t-27.5 94.5v1v4l-142 -125v-518h-291v1511h1q118 0 205 -85q85 -83 85 -204v-655l214 190q44 38 71.5 73t37 62t14 55.5t2.5 54t1 56.5h333v-4q-212 -133 -395 -292l-11 -9
l-9 -8q-59 -57 -51 -103l1 -6q1 -5 2 -7v-1h1q12 -29 48.5 -59t84 -57t102.5 -57.5t107.5 -67t96 -78.5t69.5 -99t26 -122z" />
    <glyph glyph-name="l" unicode="l" horiz-adv-x="534" 
d="M412 1229v-1229h-291v1511h1q118 0 205 -85q82 -80 85 -197z" />
    <glyph glyph-name="m" unicode="m" horiz-adv-x="1945" 
d="M1510 1085q165 0 243 -91.5t78 -284.5v-706h-288v734q0 5 0.5 27t0 34.5t-1.5 36t-5.5 38.5t-12 35t-19.5 33t-28.5 26t-40.5 19.5t-54 7.5q-59 2 -139 -25.5t-156 -95.5q19 -74 19 -164v-706h-289v734q0 3 0.5 31t0 40.5t-3.5 41t-9 44t-18 37.5t-28.5 33.5t-43 20.5
t-59.5 9q-27 0 -60.5 -8t-52 -15t-70.5 -29t-70 -29l1 -910h-289l5 1057h56l1 -2q1 -2 2 -2q32 -38 62.5 -62t65 -38t71.5 -10.5t77 25.5q212 114 329 114q224 0 291 -173q114 88 231 130.5t204 42.5z" />
    <glyph glyph-name="n" unicode="n" horiz-adv-x="1218" 
d="M784 1085q165 0 243.5 -91.5t78.5 -284.5v-706h-289v734q0 3 0.5 31t0 40.5t-3.5 41t-9 44t-18 37.5t-28.5 33.5t-43 20.5t-59.5 9q-27 0 -60.5 -8t-52 -15t-70.5 -29t-70 -29l1 -910h-289l5 1057h56l1 -2q1 -2 2 -2q32 -38 62.5 -62t65 -38t71.5 -10.5t77 25.5
q212 114 329 114z" />
    <glyph glyph-name="o" unicode="o" horiz-adv-x="1273" 
d="M1173 703q47 -164 15 -304t-136.5 -246t-258.5 -154q-233 -73 -426 22.5t-268 333.5q-47 164 -15.5 303.5t135.5 245.5t259 155q234 73 427 -22.5t268 -333.5zM794 29q121 38 142 193t-52 377q-72 232 -181.5 349.5t-227.5 80.5q-120 -38 -140.5 -193.5t53.5 -379.5
q72 -230 180.5 -346.5t225.5 -80.5z" />
    <glyph glyph-name="p" unicode="p" horiz-adv-x="1271" 
d="M1053 945q141 -152 141 -394q3 -175 -86 -325q-98 -164 -281 -225q-76 -25 -160 -25q-146 -3 -261 89v-513h-289l1 451h-1l5 1057h56l1 -2q1 -2 2 -2q33 -38 63.5 -63.5t65 -40.5t71 -10t72.5 32l-1 -1q109 88 246 106q22 3 44 3q89 0 170 -35.5t141 -101.5zM819 142
q68 134 68 387q0 249 -62 359.5t-179 110.5q-66 0 -121 -30q-1 -1 -2 -1q-65 -36 -117 -99v-657q27 -92 86 -147t138 -55q123 0 189 132z" />
    <glyph glyph-name="q" unicode="q" horiz-adv-x="1300" 
d="M1176 -448h-289v588q-150 -163 -336 -163q-95 0 -182 39.5t-152 108t-104 169t-39 214.5q0 123 45.5 231.5t121 183t176 117t208.5 42.5q231 0 378 -110l116 88h57v-1508zM887 191v657q-7 87 -72 145t-152 57q-127 0 -205 -140t-78 -381q0 -244 74.5 -355t198.5 -111
t234 128z" />
    <glyph glyph-name="r" unicode="r" horiz-adv-x="827" 
d="M800 1058h10v-250h-10q-65 78 -166 78q-60 0 -107 -28q-47 -27 -78 -74v-1q-27 -41 -34 -87q-1 -3 -3 -8.5t-3 -8.5v-677h-288v1056h22q102 -8 177 -84q77 -81 82 -188v-46v2q38 145 118.5 227t192.5 89q16 1 33.5 1t34 -0.5t19.5 -0.5z" />
    <glyph glyph-name="s" unicode="s" horiz-adv-x="917" 
d="M274 524q-76 42 -130.5 103t-63.5 120q-12 83 12.5 149t76 105.5t118.5 60t144 20.5q165 -6 322 -46l17 -259h-8q-37 28 -107.5 101t-129.5 118.5t-111 47.5q-72 3 -115.5 -33t-43.5 -109q0 -56 27 -94t78 -72q30 -20 86 -49l153 -76q111 -60 179 -136t68 -162
q0 -62 -27.5 -123t-74 -108.5t-114.5 -76.5t-144 -29q-192 0 -383 49l10 303q38 -36 95 -102t95 -107.5t90 -75.5t100 -34q75 0 118.5 47t43.5 119q-5 67 -53.5 128t-180.5 134z" />
    <glyph glyph-name="t" unicode="t" horiz-adv-x="829" 
d="M781 190q-41 -100 -131.5 -159t-197.5 -55q-73 0 -127.5 20t-83 49t-46 70t-22 73t-4.5 68v759h-130v41l126 2h4v282h23q108 -8 183.5 -86t81.5 -186v-9v-1h1v-4h281l2 -189h-3q-14 11 -46.5 39t-42.5 36t-34 26t-35 23.5t-30 14t-35.5 11t-35.5 2.5h-21v-771
q0 -183 138 -181q98 2 159 123z" />
    <glyph glyph-name="u" unicode="u" horiz-adv-x="1191" 
d="M1101 771v-771h-240l-50 176q-1 0 -1 -1q-38 -43 -70 -73t-76.5 -61.5t-96 -48t-108.5 -16.5q-77 -1 -153 25q-195 73 -195 351v706q16 0 23 -1q107 -8 182 -83q79 -77 85 -189v-8v-6v-79l1 -366q0 -29 1 -46.5t5.5 -53t16 -59t30.5 -49t52 -38.5t77 -13q89 0 225 151
l2 1v839q14 0 21 -1q108 -8 183 -83q79 -77 85 -189v-8q0 -1 0.5 -3t0.5 -3z" />
    <glyph glyph-name="v" unicode="v" horiz-adv-x="1062" 
d="M1042 1058q-43 -81 -91.5 -182t-78 -165.5t-117.5 -261.5l-214 -488h-10l-511 1097h186q59 0 108.5 -32t72.5 -86l286 -594l49 114q45 101 70 198t28 162t4.5 131.5t0.5 106.5h217z" />
    <glyph glyph-name="w" unicode="w" horiz-adv-x="1572" 
d="M1552 1058q-60 -116 -106 -221t-148 -349l-195 -527h-10l-296 682l-282 -682h-10l-482 1097h172q62 0 114.5 -34.5t76.5 -92.5l259 -565l133 327l-167 365h300l299 -686l35 84q43 105 65 206t24 159t0 135t-1 102h219z" />
    <glyph glyph-name="x" unicode="x" horiz-adv-x="1036" 
d="M1018 0h-232q-81 0 -146 115l-226 377l-93 -130q-45 -62 -60.5 -120.5t-11 -91.5t18.5 -81.5t17 -68.5h-321q155 133 330 384l96 137l-322 537h219q70 3 110 -53l168 -277q41 57 63 110.5t26.5 82t6 75t3.5 62.5h226q-169 -163 -301 -360z" />
    <glyph glyph-name="y" unicode="y" horiz-adv-x="1034" 
d="M796 1058h218q-13 -25 -26.5 -51.5t-24 -47.5t-26 -54t-23 -49.5t-26 -57.5t-24.5 -55t-28 -64t-27.5 -63t-32 -74t-32.5 -76l-271 -627q-32 -78 -90 -149q-74 -87 -182 -124q-45 -15 -92 -21q-45 -5 -81 -5l23 218q42 1 92 -13t83.5 -28t69.5 -13t62 29l2 2l6 6
q39 45 71 105l2 3v1l55 126l-474 1082h185q58 0 107 -32t72 -85l264 -605l63 144q40 93 60.5 188.5t23.5 149t1.5 137.5t-0.5 103z" />
    <glyph glyph-name="z" unicode="z" horiz-adv-x="952" 
d="M901 1050l-537 -1019h17q68 0 143.5 25t130 56t121 67.5t106.5 50.5h5v-230h-842v8l537 1021h-18q-68 0 -143.5 -22.5t-129.5 -50.5t-119 -61.5t-102 -46.5h-6l13 210h824v-8z" />
    <glyph glyph-name="braceleft" unicode="{" horiz-adv-x="663" 
d="M559 1509q-120 0 -163.5 -50t-43.5 -162q0 -79 44 -212t44 -195q-1 -121 -74 -196.5t-181 -93.5q109 -18 181.5 -93t71.5 -196q0 -62 -45 -195.5t-45 -211.5q0 -112 43 -162t162 -50v-24q-166 0 -258 28t-130 88.5t-37 168.5q0 68 27 145.5t53.5 149.5t26.5 126
q0 38 -1.5 61t-8.5 53.5t-20.5 48.5t-39.5 33t-63 19v23q37 4 63 18.5t40 33t21.5 48.5t9 54t1.5 61q0 54 -26.5 126t-52.5 149t-26 145q1 108 39 168.5t130 89t258 28.5v-24z" />
    <glyph glyph-name="verticalbar" unicode="|" horiz-adv-x="258" 
d="M108 1533h47l-5 -1664h-48z" />
    <glyph glyph-name="braceright" unicode="}" horiz-adv-x="663" 
d="M559 589q-37 -4 -63 -18.5t-39.5 -33t-21 -48.5t-9 -54t-1.5 -61q0 -54 26.5 -126t52.5 -149.5t26 -145.5q-1 -108 -39.5 -168.5t-130.5 -88.5t-258 -28v24q118 0 161.5 50.5t43.5 161.5q0 78 -42.5 211.5t-42.5 195.5q1 121 74 196t181 93q-109 18 -181.5 93t-71.5 196
q0 62 44 196t44 212q0 112 -43 162t-161 50v24q244 0 335.5 -63t90.5 -223q0 -68 -27 -145.5t-53.5 -149t-26.5 -125.5q0 -38 1.5 -61t8.5 -54t20 -48.5t39 -32.5t63 -19v-23z" />
    <glyph glyph-name="asciitilde" unicode="~" horiz-adv-x="1060" 
d="M945 891l13 -6q-22 -63 -53 -108.5t-63 -68t-65.5 -35.5t-62.5 -13t-52 2.5t-36 7.5l-14 4l-214 95q-25 11 -63.5 14t-81.5 -4t-82 -34.5t-57 -72.5l-12 4q21 62 52 107.5t62.5 68t65 35.5t62.5 13.5t52 -2t36 -6.5l14 -5l215 -92q24 -11 64 -13t83.5 6t82 34.5
t54.5 68.5z" />
    <glyph glyph-name="nonbreakingspace" unicode="&#xa0;" horiz-adv-x="696" 
 />
    <glyph glyph-name="exclamdown" unicode="&#xa1;" horiz-adv-x="528" 
d="M264 779q-68 0 -115 47t-47 115q0 67 48 114.5t115 47.5t114 -47.5t47 -114.5t-47.5 -114.5t-114.5 -47.5zM248 630h33l136 -981h-314z" />
    <glyph glyph-name="cent" unicode="&#xa2;" horiz-adv-x="1222" 
d="M1121 443q-192 -291 -448 -324l5 -118l-37 10l-4 105q-10 -1 -31 -1q-106 0 -198.5 38t-160 106.5t-106.5 170t-39 222.5q1 236 140.5 389.5t350.5 175.5l-8 200l37 -10l8 -188q4 0 13 0.5t14 0.5q253 0 404 -173l-164 -145q-20 34 -40.5 81t-35 79.5t-33.5 64t-45 48
t-61 16.5q-23 0 -51 -7l38 -948q33 -6 65 -5q121 4 202 60.5t161 165.5zM413 722q-1 -197 57 -318t162 -158l-37 926q-85 -39 -133 -156.5t-49 -293.5z" />
    <glyph glyph-name="sterling" unicode="&#xa3;" horiz-adv-x="1220" 
d="M421 201q120 -3 237 19t191 51t153 60.5t116 40.5l-37 -377h-915v7l112 199q77 182 -32 494h-144l1 35h131q-64 190 -64 299q1 184 121 302.5t308 118.5q86 0 154.5 -27.5t108.5 -72t60.5 -94t20.5 -98.5l-23 -1q-18 175 -206 175q-48 0 -91 -16t-80 -47.5t-59 -86.5
t-22 -127q0 -31 3.5 -62.5t12.5 -71.5t14 -60t19.5 -70.5t17.5 -60.5h374v-35h-362q22 -74 25 -158q0 -102 -40.5 -197t-104.5 -139z" />
    <glyph glyph-name="yen" unicode="&#xa5;" horiz-adv-x="1417" 
d="M859 435h254l12 -35h-266l-1 -392h-313l1 392h-224l-11 35h235l1 86h-236l-11 35h243l-441 884h356l388 -795l99 179q40 74 53.5 152t4 144.5t-24.5 124t-27.5 110.5t-8.5 85h373q-66 -109 -173 -320t-164 -314l-118 -216v-34h242l11 -35h-254v-86z" />
    <glyph glyph-name="section" unicode="&#xa7;" horiz-adv-x="1064" 
d="M955 736q24 -108 -31.5 -186t-172.5 -108q12 -10 17 -15q77 -72 97 -162q31 -139 -65 -224.5t-277 -85.5q-112 0 -236.5 31t-184.5 65l5 232q26 -16 55.5 -40t47.5 -41.5t51 -52t45 -46.5q59 -60 110 -92t109 -32q95 0 146 44t35 114q-8 34 -27 61.5t-52.5 51t-62.5 38.5
t-79 38l-43 20l-36 17q-146 65 -219 150q-51 59 -66 127q-24 108 34.5 185.5t178.5 103.5q-32 24 -57 54q-50 59 -66 128q-29 132 62 216t262 84q107 0 212 -29.5t161 -60.5l3 -217q-17 12 -32.5 24.5t-32 27t-26 23t-26.5 26t-21 22t-23 24.5l-19 20q-57 61 -97.5 88
t-100.5 27q-86 0 -131.5 -42t-31.5 -105q6 -26 22 -50t33.5 -40t50.5 -35.5t53.5 -29.5t60.5 -29l79 -39q125 -59 188 -118q78 -73 98 -162zM717 468q47 19 68 56t11 84q-11 47 -49 85q-3 3 -9 8.5t-9 8.5q-43 36 -155 87l-43 20l-35 17q-73 32 -129 70q-51 -17 -74 -53
t-13 -83q6 -26 22 -50t33.5 -40t50.5 -35.5t53.5 -29.5t60.5 -29l79 -38q85 -40 138 -78z" />
    <glyph glyph-name="copyright" unicode="&#xa9;" horiz-adv-x="1925" 
d="M1310 1283q6 0 27.5 22t39.5 45h21v-355h-25q-21 84 -61 153q-121 191 -310 191q-91 0 -163.5 -43.5t-116 -116t-66.5 -161t-23 -183.5q0 -133 41.5 -241t127.5 -175t202 -67q75 0 140 30t110 79.5t75 108.5t44 123h25l-7 -362h-20q-8 9 -24 31t-25.5 33t-13.5 11
l-15 -10q-15 -9 -41.5 -22t-61.5 -26t-86 -22.5t-104 -9.5q-270 0 -421 145.5t-151 380.5q0 152 84 283q158 247 485 247q55 0 106.5 -9t87 -22t62 -26.5t41.5 -22.5t16 -9zM964 1699q140 0 271 -43.5t236.5 -123.5t185 -186t123 -237.5t43.5 -271.5q0 -175 -68 -334
t-183 -274.5t-274 -184t-334 -68.5t-334.5 68.5t-275 184t-184 274.5t-68.5 334q0 233 116 431.5t314.5 314.5t431.5 116zM964 43q161 0 307.5 62.5t252 168.5t167.5 253t62 310q0 129 -39.5 250t-112.5 218.5t-170 170.5t-217.5 113t-249.5 40q-162 0 -309 -62.5
t-253 -168.5t-168 -252.5t-62 -308.5q0 -163 62 -310t168 -253t253 -168.5t309 -62.5z" />
    <glyph glyph-name="ordfeminine" unicode="&#xaa;" horiz-adv-x="870" 
d="M765 952l3 -10q-188 -103 -242 15q-44 -27 -100.5 -45.5t-102.5 -17.5q-101 0 -161.5 48.5t-59.5 127.5q1 50 30.5 88t71.5 59.5t84 39t71.5 38t29.5 44.5q0 29 -29 38h-2q-8 2 -11 2h-1q-18 3 -36 0q-34 -5 -58 -22l-12 16q-3 45 33.5 73.5t83 36.5t87.5 1
q95 -13 157 -86t64 -182l-3 -184q3 -29 14.5 -48t26 -25t29 -8.5t24.5 -0.5zM409 953q49 0 102 29v1l-3 257q0 118 -14 170.5t-64 59.5q-28 4 -55 -16.5t-20 -60.5q68 -9 68 -64q0 -25 -15.5 -47t-37.5 -40.5t-44.5 -39t-38 -51t-15.5 -67.5q-1 -59 36 -95t101 -36z" />
    <glyph glyph-name="guillemotleft" unicode="&#xab;" horiz-adv-x="1007" 
d="M540 931l-167 -356l177 -342l-14 -11l-434 369l1 11l417 347zM728 575l178 -342l-15 -11l-433 369l1 11l417 347l19 -18z" />
    <glyph glyph-name="softhyphen" unicode="&#xad;" horiz-adv-x="0" 
 />
    <glyph glyph-name="registered" unicode="&#xae;" horiz-adv-x="1163" 
d="M581 1845q130 0 240.5 -63.5t174.5 -173.5t64 -240q0 -129 -64 -239t-174.5 -174t-240.5 -64q-197 0 -338 140t-141 337q0 198 140.5 337.5t338.5 139.5zM683 1368v-2q19 -16 49 -52q39 -48 88 -119q56 -66 126 -72q72 107 72 245q0 178 -129 307t-308 129
q-178 0 -306 -128.5t-128 -307.5q0 -180 127.5 -308t306.5 -128q104 0 196.5 46t154.5 125h-164q-14 20 -43 65q-65 98 -101 139q-38 43 -65 48q-9 2 -38 2v-131q0 -58 9 -74q19 -27 74 -27v-22h-263v22q17 0 38.5 7t30.5 16q16 19 16 87v284q0 74 -16 90q-22 18 -65 24v18
q9 0 99 2.5t122 2.5q112 0 168 -25q37 -17 58 -51t21 -77q0 -51 -37 -86.5t-93 -48.5zM624 1390q86 29 86 117q0 78 -70 111q-22 11 -77 11q-29 0 -38 -2q-4 -18 -4 -57v-189q72 0 103 9z" />
    <glyph glyph-name="degree" unicode="&#xb0;" horiz-adv-x="686" 
d="M343 1663q100 0 170 -70t70 -171q0 -100 -69.5 -170t-172.5 -70q-102 0 -170.5 69t-68.5 171q0 103 70 172t171 69zM343 1258q69 0 113.5 47.5t44.5 116.5t-45 117t-113 48t-113.5 -48t-45.5 -117q0 -70 45.5 -117t113.5 -47z" />
    <glyph glyph-name="twosuperior" unicode="&#xb2;" horiz-adv-x="667" 
d="M562 1014q10 -41 -7 -74t-68 -36l1 -1h-372v3l46 48q170 174 170 360q-1 1 0.5 13t-3 31.5t-10.5 38t-22.5 33.5t-40.5 18q-29 4 -54 -4t-40.5 -22.5t-27 -29t-16.5 -24.5l-5 -11l-11 5q68 128 197 128q63 0 111 -41.5t48 -116.5q0 -29 -3.5 -51t-19 -49.5t-27.5 -45
t-49 -56t-62.5 -62.5t-87.5 -83l273 3q35 -2 56.5 5t17.5 22z" />
    <glyph glyph-name="threesuperior" unicode="&#xb3;" horiz-adv-x="600" 
d="M497 1069q0 -56 -36 -98t-96 -62h1q-42 -16 -113.5 -18.5t-123.5 14.5l2 77q9 -3 45.5 -23.5t73 -35.5t60.5 -12q78 21 78 131q0 65 -29 118t-83 62l-28 4l-3 9l21 7q50 17 72.5 37.5t22.5 66.5q0 43 -28 67.5t-73 24.5t-87.5 -22t-59.5 -43l-11 4q31 44 91 78.5
t131 34.5q66 0 109.5 -32.5t43.5 -84.5q0 -46 -36.5 -83t-87.5 -50v-1q59 -10 101.5 -58.5t42.5 -111.5z" />
    <glyph glyph-name="onesuperior" unicode="&#xb9;" horiz-adv-x="393" 
d="M287 1490h3l-2 -587h-112l2 492q-13 -6 -35 -18.5t-41 -21.5v10z" />
    <glyph glyph-name="ordmasculine" unicode="&#xba;" horiz-adv-x="813" 
d="M696 1289q39 -128 -19.5 -233.5t-185.5 -145.5q-126 -40 -229.5 11.5t-143.5 179.5q-39 128 19 233.5t186 145.5q126 40 229.5 -11.5t143.5 -179.5zM491 926q65 20 77 104t-27 203q-39 125 -97.5 188t-122.5 43q-65 -20 -75.5 -103.5t28.5 -204.5q38 -124 96 -187
t121 -43z" />
    <glyph glyph-name="guillemotright" unicode="&#xbb;" horiz-adv-x="1007" 
d="M550 587l-1 -12l-417 -346l-19 18l167 355l-178 342l15 11zM472 955l434 -368l-1 -12l-417 -346l-20 18l167 355l-177 342z" />
    <glyph glyph-name="questiondown" unicode="&#xbf;" horiz-adv-x="1193" 
d="M1076 -64q41 -85 -23.5 -158.5t-214.5 -110.5q-18 -4 -52 -10q-100 -18 -203 -4q-2 0 -6.5 0.5t-6.5 0.5q-68 8 -130 25q-176 50 -269 166t-60 267q10 46 43 84.5t76.5 66t93.5 55t95 59t79 70t48 96.5t1 131l47 -5q27 -42 40 -83.5t15 -74.5t-9.5 -69.5t-22.5 -60
t-34.5 -54.5t-35.5 -44.5t-35 -37.5q-1 -1 -2.5 -4t-2.5 -4t-6 -8t-7 -11q-15 -25 -11 -53q0 -1 0.5 -2t0.5 -2q3 -10 8 -16l4 -4q18 -15 43 -23l1 -1q38 -12 127.5 -24t163 -22.5t146 -44.5t99.5 -90zM619 -329q21 0 41.5 1.5t52.5 10.5t56 24.5t42.5 47t20.5 74.5
q2 32 -14 61q-11 22 -29.5 42t-37 33t-48 27.5t-49 22t-53 20t-48.5 18.5q-1 1 -5 2t-5 2q-2 1 -5 2t-4 2q-25 12 -42.5 27t-24.5 27t-9.5 24.5t-2 18.5t1.5 10q-8 -14 -9 -16q-6 -12 -8 -18q-19 -44 -33 -105q-28 -126 2.5 -213.5t112.5 -123.5q34 -15 78 -20q3 -1 6 -1h8
h5zM670 848q-38 -38 -92.5 -38t-92.5 38q-28 28 -35.5 66.5t7.5 75.5t48 59.5t73 22.5t73 -22t48 -59t7 -76t-36 -67z" />
    <glyph glyph-name="Agrave" unicode="&#xc0;" horiz-adv-x="1318" 
d="M673 1470l633 -1468h-339l-198 460h-492q-23 -72 -19 -123.5t29 -103t52 -87.5t51.5 -76t27.5 -70h-414q120 217 300 629l361 839h8zM290 498h465l-233 543l-183 -426q-34 -78 -49 -117zM836 1487h-32l-497 306l140 40z" />
    <glyph glyph-name="Aacute" unicode="&#xc1;" horiz-adv-x="1372" 
d="M1360 3h-353l-207 479h-512q-24 -75 -19.5 -129t30 -107.5t54 -91t54 -79t28.5 -72.5h-431q79 144 142 276.5t171 378.5l375 874h8zM302 519h484l-243 566l-190 -443q-48 -115 -51 -123zM502 1532h-32l389 346l140 -41z" />
    <glyph glyph-name="Acircumflex" unicode="&#xc2;" horiz-adv-x="1318" 
d="M1306 1h-339l-198 461h-492q-23 -72 -19 -123.5t29 -103t52 -87.5t51.5 -76.5t27.5 -70.5h-414q76 138 135.5 264.5t164.5 365.5l361 839h8zM755 497l-233 543l-183 -425q-31 -72 -49 -118h465zM400 1429h-37l292 404l293 -404h-37l-256 247z" />
    <glyph glyph-name="Atilde" unicode="&#xc3;" horiz-adv-x="1318" 
d="M673 1468l633 -1468h-339l-198 461h-492q-23 -72 -19 -123.5t29 -103t52 -87.5t51.5 -76.5t27.5 -70.5h-414q120 217 300 629l361 839h8zM269 1553l-11 5q28 85 71.5 138t86.5 68t82 17.5t63 -5.5l24 -8l205 -92q23 -11 61 -13t79.5 6.5t78 35t51.5 68.5l13 -7
q-20 -63 -49.5 -108.5t-59.5 -68t-62 -35.5t-60 -13t-50 2.5t-35 6.5l-13 5l-205 95q-24 11 -60.5 14t-77.5 -4t-78 -34.5t-54 -72.5zM290 496h465l-233 543l-183 -425q-31 -72 -49 -118z" />
    <glyph glyph-name="Adieresis" unicode="&#xc4;" horiz-adv-x="1318" 
d="M673 1468l633 -1468h-339l-198 461h-492q-23 -72 -19 -123.5t29 -103t52 -87.5t51.5 -76.5t27.5 -70.5h-414q120 217 300 629l361 839h8zM290 496h465l-233 543l-183 -425q-31 -72 -49 -118zM519 1572q-35 0 -60.5 25.5t-25.5 60.5q0 27 14 49t39 32q55 23 96 -18t18 -96
q-10 -25 -32 -39t-49 -14zM747 1659q0 35 24.5 60t59.5 27q50 2 76 -43q26 -44 0 -88q-26 -45 -76 -43q-35 2 -59.5 27t-24.5 60z" />
    <glyph glyph-name="Aring" unicode="&#xc5;" horiz-adv-x="1318" 
d="M1306 0h-339l-198 461h-492q-23 -72 -19 -123.5t29 -103t52 -87.5t51.5 -76.5t27.5 -70.5h-414q120 217 300 629l350 814q-89 -11 -161 43t-86 143t37.5 162.5t140.5 90.5t164 -32.5t94 -137.5t-28 -164.5t-134 -99.5zM290 496h465l-233 543l-183 -426q-34 -78 -49 -117z
M436 1658q1 -80 56.5 -135.5t135.5 -56.5q58 0 106 32.5t71 86.5t11.5 111t-52.5 98t-98.5 52.5t-111.5 -11.5t-86 -71t-32 -106z" />
    <glyph glyph-name="AE" unicode="&#xc6;" horiz-adv-x="1865" 
d="M1803 331v-332h-980v535h-482q-34 -70 -45 -137t-2.5 -122t21.5 -101t27 -93.5t15 -80.5l-353 -1l788 1487h974v-188l9 -155q-46 28 -166 118t-211 139t-169 49h-84v-655q63 8 117 27t85 40.5t53.5 41.5t31.5 33l8 14h8l3 -346h-7q-18 41 -55.5 70.5t-84.5 43.5t-84 20
t-75 7v-709h94q50 0 104.5 16.5t119 53.5t108.5 65t122 83t110 77zM823 571v878l-429 -809q-5 -10 -37 -69h466z" />
    <glyph glyph-name="Ccedilla" unicode="&#xc7;" horiz-adv-x="1402" 
d="M779 -23l-24 -66q147 29 224 -40q61 -56 48 -141q-22 -175 -223 -175q-42 0 -75.5 11t-46 20.5t-19.5 18.5q-2 2 0 7q2 3 6 2l54 -10q5 -2 5 -6q35 -20 76 -18q61 0 96 34t35 93q2 73 -55 121q-60 48 -172 22q-4 -2 -6 1q-3 3 -1 6l39 120q-296 6 -482 206t-186 515
q0 171 55 313t152.5 238t232.5 149t293 53q151 -2 290 -62t245 -168l-244 -218q-16 34 -36 88t-35 95t-38 87t-47 76t-60.5 50t-80.5 20q-96 0 -171 -51t-122 -141t-71 -206.5t-24 -252.5q0 -328 131 -501t349 -173q134 -2 253 61.5t192 175.5l24 -13q-90 -154 -243.5 -245
t-332.5 -96h-5z" />
    <glyph glyph-name="Egrave" unicode="&#xc8;" horiz-adv-x="1142" 
d="M1081 283l-45 -284h-903v1432h883l32 -268h-4q-11 7 -80.5 50t-92 56t-82.5 45.5t-93.5 44.5t-81.5 24t-88 12h-80v-608h2v-23q59 5 114 23.5t92 40.5t65 44t41 36l13 15h7l3 -347h-6q-61 73 -166.5 108t-164.5 34v-684h90q48 0 105 15.5t104.5 36t113.5 59t107 65
t111 73.5h4zM783 1508h-32l-497 306l140 40z" />
    <glyph glyph-name="Eacute" unicode="&#xc9;" horiz-adv-x="1142" 
d="M1081 283l-45 -284h-903v1432h883l32 -268h-4q-11 7 -80.5 50t-92 56t-82.5 45.5t-93.5 44.5t-81.5 24t-88 12h-80v-608h2v-23q65 13 122 34t92.5 42t62 40t37.5 31l11 12h7l3 -347h-6q-61 69 -169 106t-162 36v-684h90q48 0 105 15.5t104.5 36t113.5 59t107 65t111 73.5
h4zM287 1479h-33l389 346l140 -40z" />
    <glyph glyph-name="Ecircumflex" unicode="&#xca;" horiz-adv-x="1142" 
d="M1081 283l-45 -284h-903v1432h883l32 -268h-4q-11 7 -80.5 50t-92 56t-82.5 45.5t-93.5 44.5t-81.5 24t-88 12h-80v-608h2v-23q65 10 122 30.5t92.5 42t62 41t37.5 32.5l11 13h7l3 -347h-6q-31 41 -81.5 71.5t-101 44.5t-88.5 20t-60 6v-684h90q48 0 105 15.5t104.5 36
t113.5 59t107 65t111 73.5h4zM301 1479h-36l292 404l292 -404h-36l-256 248z" />
    <glyph glyph-name="Edieresis" unicode="&#xcb;" horiz-adv-x="1142" 
d="M1081 283l-45 -284h-903v1432h883l32 -268h-4q-11 7 -80.5 50t-92 56t-82.5 45.5t-93.5 44.5t-81.5 24t-88 12h-80v-608h1v-23q63 7 120 25.5t93 41t63 43.5t39 35l11 14h7l3 -347h-7q-41 50 -115 85t-129 46.5t-86 10.5v-684h90q48 0 105 15.5t104.5 36t113.5 59t107 65
t111 73.5h4zM298 1647q0 35 24.5 60t59.5 27q23 1 44 -11t33 -32q26 -44 0 -88q-12 -20 -33 -32t-44 -11q-35 2 -59.5 27t-24.5 60zM696 1560q-36 1 -61 26.5t-25 60.5q0 36 25 61t61 26q36 -1 60.5 -26.5t24.5 -60.5t-24.5 -60.5t-60.5 -26.5z" />
    <glyph glyph-name="Igrave" unicode="&#xcc;" horiz-adv-x="798" 
d="M662 1450h-32l-497 306l140 40zM522 0h-312v1427h312v-1427z" />
    <glyph glyph-name="Iacute" unicode="&#xcd;" horiz-adv-x="798" 
d="M662 1785l-497 -306h-32l389 346zM567 0h-311v1427h311v-1427z" />
    <glyph glyph-name="Icircumflex" unicode="&#xce;" horiz-adv-x="854" 
d="M718 1450h-37l-256 248l-255 -248h-37l292 404zM581 0h-311v1427h311v-1427z" />
    <glyph glyph-name="Idieresis" unicode="&#xcf;" horiz-adv-x="753" 
d="M219 1505q-35 -2 -61 24q-25 25 -25 60q-2 35 24 62q24 26 62 26q36 -1 61 -26.5t25 -61.5q-1 -35 -26 -59.5t-60 -24.5zM531 0h-312v1427h312v-1427zM592 1651q25 -27 25 -62q-1 -35 -26 -59.5t-60 -24.5t-60 24.5t-26 59.5q0 37 24 62q24 26 62 26q37 0 61 -26z" />
    <glyph glyph-name="Ntilde" unicode="&#xd1;" horiz-adv-x="1398" 
d="M1307 1432q-60 -255 -60 -626v-830h-26l-1069 1226v-577q0 -77 24 -154t60.5 -140.5t74 -120.5t69.5 -112.5t42 -97.5h-371q61 259 61 625v628l2 179v6l236 -6l857 -970v344q0 77 -25.5 154.5t-63.5 141t-77.5 120t-72.5 112.5t-43 98h382zM447 1504h-32l389 346l140 -41
z" />
    <glyph glyph-name="Ograve" unicode="&#xd2;" horiz-adv-x="1662" 
d="M1493 1087q107 -207 100.5 -400.5t-118 -358t-307.5 -270.5q-140 -76 -283 -97.5t-274.5 10.5t-247.5 126t-196 243q-107 207 -100.5 400.5t118 358t307.5 270.5q188 101 375 107.5t353 -92.5t273 -297zM1172 96q122 66 163 187.5t6 278t-137 345.5q-155 287 -345.5 404
t-367.5 22q-122 -66 -163.5 -188.5t-6.5 -279t136 -344.5q155 -287 345.5 -404t369.5 -21zM1016 1521h-32l-497 305l140 41z" />
    <glyph glyph-name="Oacute" unicode="&#xd3;" horiz-adv-x="1662" 
d="M1493 1087q107 -207 100.5 -400.5t-118 -358t-307.5 -270.5q-140 -76 -283 -97.5t-274.5 10.5t-247.5 126t-196 243q-107 207 -100.5 400.5t118 358t307.5 270.5q188 101 375 107.5t353 -92.5t273 -297zM1172 96q121 66 162 187.5t6.5 278t-136.5 345.5
q-155 287 -345.5 404t-367.5 22q-122 -66 -163.5 -188.5t-6.5 -279t136 -344.5q155 -287 345.5 -404t369.5 -21zM602 1521h-32l389 346l139 -41z" />
    <glyph glyph-name="Ocircumflex" unicode="&#xd4;" horiz-adv-x="1662" 
d="M1493 1087q107 -207 100.5 -400.5t-118 -358t-307.5 -270.5q-140 -76 -283 -97.5t-274.5 10.5t-247.5 126t-196 243q-107 207 -100.5 400.5t118 358t307.5 270.5q188 101 375 107.5t353 -92.5t273 -297zM1172 96q121 66 162 187.5t6.5 278t-136.5 345.5
q-155 287 -345.5 404t-367.5 22q-122 -66 -163.5 -188.5t-6.5 -279t136 -344.5q155 -287 345.5 -404t369.5 -21zM534 1523h-37l292 404l293 -404h-37l-256 247z" />
    <glyph glyph-name="Otilde" unicode="&#xd5;" horiz-adv-x="1662" 
d="M1493 1085q107 -207 100.5 -400.5t-118 -358t-307.5 -270.5q-140 -76 -283 -97.5t-274.5 10.5t-247.5 126t-196 243q-107 207 -100.5 400.5t118 358t307.5 270.5q188 101 375 107.5t353 -92.5t273 -297zM1172 94q122 66 163 187.5t6 278t-137 345.5q-155 287 -345.5 404
t-367.5 22q-122 -66 -163.5 -188.5t-6.5 -279t136 -344.5q155 -287 345.5 -404t369.5 -21zM351 1553l-13 4q33 85 85 138t102 68t96 17.5t74 -5.5l28 -8l243 -94q27 -10 71.5 -11.5t93 6.5t92 35t61.5 69l13 -7q-33 -86 -85 -139t-102.5 -68t-96.5 -17t-75 6l-28 8l-238 92
q-41 16 -101 18t-126 -25.5t-94 -86.5z" />
    <glyph glyph-name="Odieresis" unicode="&#xd6;" horiz-adv-x="1662" 
d="M1493 1085q107 -207 100.5 -400.5t-118 -358t-307.5 -270.5q-140 -76 -283 -97.5t-274.5 10.5t-247.5 126t-196 243q-107 207 -100.5 400.5t118 358t307.5 270.5q188 101 375 107.5t353 -92.5t273 -297zM1172 94q121 66 162.5 187.5t7 278t-136.5 345.5
q-155 287 -346 404t-368 22q-122 -66 -163.5 -188.5t-6.5 -279t136 -344.5q155 -287 345.5 -404t369.5 -21zM673 1549q-35 2 -59.5 27t-24.5 60t24.5 60t59.5 27q36 0 61.5 -25.5t25.5 -61.5t-25.5 -61.5t-61.5 -25.5zM985 1549q-35 2 -60 27t-25 60t25 60t60 27
q36 0 61.5 -25.5t25.5 -61.5t-25.5 -61.5t-61.5 -25.5z" />
    <glyph glyph-name="multiply" unicode="&#xd7;" horiz-adv-x="950" 
d="M847 1038l-338 -237l304 -228l-34 -24l-304 228l-338 -238l-35 26l339 238l-304 227l34 24l304 -228l338 238z" />
    <glyph glyph-name="Oslash" unicode="&#xd8;" horiz-adv-x="1746" 
d="M1529 1085q107 -207 100.5 -400.5t-118 -358t-307.5 -270.5q-151 -82 -304.5 -101.5t-297 28.5t-256.5 161l-210 -211l-18 17l211 211q-73 79 -125 177q-107 207 -100.5 400.5t118 358t307.5 270.5q159 85 318.5 102.5t307.5 -38.5t261 -183l244 244l18 -17l-246 -245
q52 -64 97 -145zM493 519q29 -54 73 -121l613 613q-148 231 -320 318.5t-331 1.5q-122 -66 -163.5 -188.5t-7 -279t135.5 -344.5zM1241 905q-25 47 -49 85l-612 -613q96 -140 201 -222t213.5 -99.5t213.5 38.5q122 66 163 187.5t6.5 278t-136.5 345.5z" />
    <glyph glyph-name="Ugrave" unicode="&#xd9;" horiz-adv-x="1345" 
d="M904 1425h362q-61 -259 -61 -623v-288q0 -266 -129 -402.5t-402 -136.5q-280 0 -418.5 140.5t-138.5 402.5v907h311v-911q0 -236 94.5 -353.5t270.5 -117.5q175 0 274 115.5t99 345.5v298q0 77 -23.5 154t-58.5 140t-71.5 119.5t-67.5 112t-41 97.5zM956 1523h-33
l-496 306l139 41z" />
    <glyph glyph-name="Uacute" unicode="&#xda;" horiz-adv-x="1394" 
d="M936 1486h377q-63 -263 -63 -649v-301q0 -277 -134 -419t-419 -142q-291 0 -435.5 146.5t-144.5 419.5v945h324v-950q0 -245 98.5 -367.5t281.5 -122.5q182 0 285 120t103 360v311q0 80 -24.5 160.5t-61 146t-74 124.5t-70.5 117t-43 101zM478 1564h-32l389 346l140 -40z
" />
    <glyph glyph-name="Ucircumflex" unicode="&#xdb;" horiz-adv-x="1345" 
d="M904 1425h362q-61 -259 -61 -623v-288q0 -266 -129 -402.5t-402 -136.5q-280 0 -418.5 140.5t-138.5 402.5v907h311v-911q0 -236 95 -353.5t270 -117.5t274 115.5t99 345.5v298q0 77 -23.5 154t-58.5 140t-71.5 119.5t-67.5 112t-41 97.5zM455 1494h-36l292 405l293 -405
h-37l-256 248z" />
    <glyph glyph-name="Udieresis" unicode="&#xdc;" horiz-adv-x="1345" 
d="M904 1425h362q-61 -259 -61 -623v-288q0 -266 -129 -402.5t-402 -136.5q-280 0 -418.5 140.5t-138.5 402.5v907h311v-911q0 -236 94.5 -353.5t270.5 -117.5q175 0 274 115.5t99 345.5v298q0 77 -23.5 154t-58.5 140t-71.5 119.5t-67.5 112t-41 97.5zM533 1502
q-35 1 -59 26.5t-24 60.5t24 60.5t59 26.5q36 0 61.5 -25.5t25.5 -61.5t-25.5 -61.5t-61.5 -25.5zM845 1502q-35 2 -59.5 27t-24.5 60t24.5 60t59.5 27q36 0 61.5 -25.5t25.5 -61.5t-25.5 -61.5t-61.5 -25.5z" />
    <glyph glyph-name="Yacute" unicode="&#xdd;" horiz-adv-x="1241" 
d="M1235 1425q-164 -273 -333 -582l-118 -216v-629h-311v588l-471 839h355l414 -743l98 179q40 74 53 146.5t3.5 131t-24.5 108.5t-28 98t-9 80h371zM386 1498h-32l389 346l139 -40z" />
    <glyph glyph-name="germandbls" unicode="&#xdf;" horiz-adv-x="1341" 
d="M1239 449q0 -140 -77 -250t-206.5 -168.5t-286.5 -58.5l30 35q128 0 198.5 96t70.5 271q0 81 -16.5 159.5t-49 148.5t-88 118.5t-125.5 61.5l-69 13l-8 23l53 20q105 39 166.5 145t61.5 243q0 306 -175 311q-87 -7 -143 -105.5t-56 -233.5l2 -125v-1157h-291v1109h-128
v48h128l-2 84q0 195 102.5 304t267.5 109q65 0 101.5 -1t106.5 -8t113 -20.5t98.5 -41t87.5 -66.5t55.5 -100t25.5 -139q2 -96 -63.5 -179.5t-161 -131.5t-194.5 -56q58 -10 122.5 -37.5t126.5 -71t112 -96.5t80.5 -119.5t30.5 -133.5z" />
    <glyph glyph-name="agrave" unicode="&#xe0;" 
d="M1179 57v-11q-101 -63 -220 -63q-140 1 -186 103q-156 -113 -347 -111q-186 0 -298 90t-112 239q0 69 30 129t77.5 103t105 80.5t115 68.5t105 60t77.5 61.5t30 66.5q0 25 -14.5 44t-38.5 26q-2 0 -5 1q-7 2 -21 4l-1 1q-30 4 -67 -1q-57 -8 -106 -41l-40 52
q73 74 173 106.5t204 15.5q176 -24 290.5 -160.5t120.5 -341.5l-4 -375q0 -36 0.5 -52.5t5 -39.5t14 -33t27.5 -17.5t46 -7.5q20 0 39 3zM777 621l-16 2q-1 73 -2.5 120t-6.5 100t-15 85.5t-26 62t-40.5 44.5t-57.5 20q-38 5 -65.5 -15.5t-55.5 -64.5q56 -6 91 -37.5
t35 -84.5q0 -47 -30 -94.5t-72.5 -91.5t-85 -91.5t-72.5 -111t-30 -132.5q0 -112 69 -179.5t186 -67.5q96 0 176 47l-1 1v1l3 489zM917 1128h-32l-497 305l140 41z" />
    <glyph glyph-name="aacute" unicode="&#xe1;" 
d="M1179 57v-11q-101 -63 -220 -63q-140 1 -186 103q-156 -113 -347 -111q-186 0 -298 90t-112 239q0 69 30 129t77.5 103t105 80.5t115 68.5t105 60t77.5 61.5t30 66.5q0 25 -14.5 44t-38.5 26q-2 0 -5 1q-8 2 -20 4l-2 1q-30 4 -67 -1q-57 -8 -106 -41l-40 52
q73 74 173 106.5t204 15.5q176 -24 290.5 -160.5t120.5 -341.5l-4 -375q0 -36 0.5 -52.5t5 -39.5t14 -33t27.5 -17.5t46 -7.5q20 0 39 3zM777 621l-16 2q-1 73 -2.5 120t-6.5 100t-15 85.5t-26 62t-40.5 44.5t-57.5 20q-38 5 -65.5 -15.5t-55.5 -64.5q56 -6 91 -37.5
t35 -84.5q0 -47 -30 -94.5t-72.5 -91.5t-85 -91.5t-72.5 -111t-30 -132.5q0 -112 69 -179.5t186 -67.5q96 0 176 47l-1 1v1l3 489zM366 1128h-33l389 346l140 -41z" />
    <glyph glyph-name="acircumflex" unicode="&#xe2;" 
d="M1179 57v-11q-101 -63 -220 -63q-140 1 -186 103q-156 -113 -347 -111q-186 0 -298 90t-112 239q0 69 30 129t77.5 103t105 80.5t115 68.5t105 60t77.5 61.5t30 66.5q0 25 -14.5 44t-38.5 26q-2 0 -5 1q-8 2 -20 4l-2 1q-30 4 -67 -1q-57 -8 -106 -41l-40 52
q73 74 173 106.5t204 15.5q176 -24 290.5 -160.5t120.5 -341.5l-4 -375q0 -36 0.5 -52.5t5 -39.5t14 -33t27.5 -17.5t46 -7.5q20 0 39 3zM777 621l-16 2q-1 73 -2.5 120t-6.5 100t-15 85.5t-26 62t-40.5 44.5t-57.5 20q-38 5 -65.5 -15.5t-55.5 -64.5q56 -6 91 -37.5
t35 -84.5q0 -47 -30 -94.5t-72.5 -91.5t-85 -91.5t-72.5 -111t-30 -132.5q0 -112 69 -179.5t186 -67.5q96 0 176 47l-1 1v1l3 489zM367 1116h-37l292 404l293 -404h-37l-256 248z" />
    <glyph glyph-name="atilde" unicode="&#xe3;" 
d="M1179 57v-11q-101 -63 -220 -63q-140 1 -186 103q-156 -113 -347 -111q-186 0 -298 90t-112 239q0 69 30 129t77.5 103t105 80.5t115 68.5t105 60t77.5 61.5t30 66.5q0 25 -14.5 44t-38.5 26q-2 0 -5 1q-8 2 -20 4l-2 1q-30 4 -67 -1q-57 -8 -106 -41l-40 52
q73 74 173 106.5t204 15.5q176 -24 290.5 -160.5t120.5 -341.5l-4 -375q0 -36 0.5 -52.5t5 -39.5t14 -33t27.5 -17.5t46 -7.5q20 0 39 3zM496 1280q-26 11 -63.5 14t-80 -3t-81 -33.5t-57.5 -72.5l-11 5q21 62 51 107t61.5 67.5t64 35t61 13t51.5 -1.5t36 -7l13 -4l214 -94
q24 -10 63 -12t81.5 6t80.5 34.5t54 67.5l11 -4q-21 -63 -51.5 -108.5t-61.5 -68t-64 -35.5t-62 -13t-52 2.5t-36 6.5l-13 5zM777 621l-16 2q-1 73 -2.5 120t-6.5 100t-15 85.5t-26 62t-40.5 44.5t-57.5 20q-38 5 -65.5 -15.5t-55.5 -64.5q56 -6 91 -37.5t35 -84.5
q0 -47 -30 -94.5t-72.5 -91.5t-85 -91.5t-72.5 -111t-30 -132.5q0 -112 69 -179.5t186 -67.5q96 0 176 47l-1 1v1l3 489z" />
    <glyph glyph-name="adieresis" unicode="&#xe4;" 
d="M1179 57v-11q-101 -63 -220 -63q-140 1 -186 103q-156 -113 -347 -111q-186 0 -298 90t-112 239q0 69 30 129t77.5 103t105 80.5t115 68.5t105 60t77.5 61.5t30 66.5q0 25 -14.5 44t-38.5 26q-2 0 -5 1q-8 2 -20 4l-2 1q-30 4 -67 -1q-57 -8 -106 -41l-40 52
q73 74 173 106.5t204 15.5q176 -24 290.5 -160.5t120.5 -341.5l-4 -375q0 -36 0.5 -52.5t5 -39.5t14 -33t27.5 -17.5t46 -7.5q20 0 39 3zM777 621l-16 2q-1 73 -2.5 120t-6.5 100t-15 85.5t-26 62t-40.5 44.5t-57.5 20q-38 5 -65.5 -15.5t-55.5 -64.5q56 -6 91 -37.5
t35 -84.5q0 -47 -30 -94.5t-72.5 -91.5t-85 -91.5t-72.5 -111t-30 -132.5q0 -112 69 -179.5t186 -67.5q96 0 176 47l-1 1v1l3 489zM442 1182q-36 0 -61.5 25.5t-25.5 61.5t25.5 61.5t61.5 25.5t61.5 -25.5t25.5 -61.5t-25.5 -61.5t-61.5 -25.5zM754 1182q-35 2 -60 27
t-25 60t25 60t60 27q36 0 61.5 -25.5t25.5 -61.5t-25.5 -61.5t-61.5 -25.5z" />
    <glyph glyph-name="aring" unicode="&#xe5;" 
d="M1179 57v-11q-101 -63 -220 -63q-140 1 -186 103q-156 -113 -347 -111q-186 0 -298 90t-112 239q0 69 30 129t77.5 103t105 80.5t115 68.5t105 60t77.5 61.5t30 66.5q0 25 -14.5 44t-38.5 26q-2 0 -5 1q-8 2 -20 4l-2 1q-30 4 -67 -1q-57 -8 -106 -41l-40 52
q73 74 173 106.5t204 15.5q176 -24 290.5 -160.5t120.5 -341.5l-4 -375q0 -36 0.5 -52.5t5 -39.5t14 -33t27.5 -17.5t46 -7.5q20 0 39 3zM777 621l-16 2q-1 73 -2.5 120t-6.5 100t-15 85.5t-26 62t-40.5 44.5t-57.5 20q-38 5 -65.5 -15.5t-55.5 -64.5q56 -6 91 -37.5
t35 -84.5q0 -47 -30 -94.5t-72.5 -91.5t-85 -91.5t-72.5 -111t-30 -132.5q0 -112 69 -179.5t186 -67.5q96 0 176 47l-1 1v1l3 489zM455 1201q-64 64 -64 154q0 66 36 121.5t97 80.5q61 26 126 13t112 -59t60 -111t-12 -126t-79.5 -98t-120.5 -37q-91 -2 -155 62zM472 1492
q-56 -56 -56 -137q1 -80 57.5 -136t135.5 -56t136 56.5t57 136.5q0 79 -56 135.5t-136 57.5q-81 0 -138 -57z" />
    <glyph glyph-name="ae" unicode="&#xe6;" horiz-adv-x="1853" 
d="M1121 382q-11 -38 0 -77q2 -10 8 -28q1 -3 3 -11h1q83 -175 263 -175q182 0 312 176l23 -13q-183 -279 -462 -279q-112 -2 -213.5 44t-172.5 132q-36 -24 -110 -65q-156 -113 -347 -111q-186 0 -298 90t-112 239q0 69 30 129t77.5 103t105 80.5t115 68.5t105 60
t77.5 61.5t30 66.5q0 25 -14.5 44t-38.5 26q-2 1 -5 2q-14 4 -20 4h-2q-34 5 -67 0q-56 -7 -106 -42l-40 52q73 74 173 107t204 16q174 -23 288 -159q107 105 254 139q66 15 134 15q2 0 6.5 -0.5t6.5 -0.5q107 3 199 -35q19 -7 49 -23q139 -73 187.5 -185t-10.5 -223
q-31 -60 -86.5 -95t-121.5 -46t-129 -13t-129 -4.5t-101 -12.5h-1q-27 -7 -48 -27q-3 -3 -4 -5q-8 -9 -12 -21q-1 -1 -1 -4zM759 132l-1 1v1l3 489l13 -2l-13 2q-1 73 -2.5 120t-6.5 100t-15 85.5t-26 62t-40.5 44.5t-57.5 20q-38 5 -65.5 -15.5t-55.5 -64.5q56 -6 91 -37.5
t35 -84.5q0 -47 -30 -94.5t-72.5 -91.5t-85 -91.5t-72.5 -111t-30 -132.5q0 -112 69 -179.5t186 -67.5q96 0 176 47zM1094 381q0 9 2.5 20.5t10.5 34t30.5 44.5t56.5 38q2 1 5 2t4 2q4 2 10 4q16 6 52 18.5t57 20t53 23t53 31t44 40t38 53.5q20 36 26 83q7 60 -4.5 106
t-31.5 71.5t-49.5 42.5t-50 23t-40.5 8h-2q-1 1 -2 1h-9h-6q-43 0 -81 -16q-88 -37 -136.5 -154t-48.5 -296q0 -79 10 -150q1 -7 5 -26q2 -16 4 -24z" />
    <glyph glyph-name="ccedilla" unicode="&#xe7;" horiz-adv-x="1062" 
d="M575 -24l-20 -55q138 25 208 -40q59 -54 46 -136q-22 -167 -213 -167q-96 0 -135 48q-6 8 1 13l24 20q3 3 8 1q6 -2 7 -5v-2q39 -40 95 -45q56 0 88 31t32 85q0 67 -50 111q-56 44 -159 20q-5 -1 -9 3t-2 9l37 111q-200 16 -329.5 160t-129.5 372q0 169 75 299.5
t199.5 199t276.5 68.5q253 0 404 -173l-164 -144q-23 38 -49.5 99t-43 96.5t-48 63.5t-74.5 28q-124 0 -195 -124t-71 -342q0 -241 86 -365.5t235 -124.5q183 0 312 176l23 -14q-174 -266 -439 -277h-26z" />
    <glyph glyph-name="egrave" unicode="&#xe8;" horiz-adv-x="1163" 
d="M430 381q-11 -38 0 -76q4 -17 7 -28q0 -1 1.5 -5t2.5 -6q82 -175 264 -175t312 176l23 -13q-183 -279 -462 -279q-106 0 -198 38t-160 106t-107 169t-39 222q0 215 116.5 362t300.5 190q66 15 134 15q2 0 6.5 -0.5t6.5 -0.5q107 3 199 -35q19 -7 49 -23
q139 -73 187.5 -185t-10.5 -223q-31 -60 -86.5 -95t-121.5 -46t-129 -13t-129 -4.5t-101 -12.5l-1 -1q-29 -8 -48 -26q-3 -3 -4 -5q-7 -9 -12 -21q-1 -1 -1 -5zM905 1096h-32l-497 305l140 41zM403 381q0 9 2 20.5t10 34t30.5 44.5t56.5 38q1 1 4.5 2t5.5 2q4 2 10 4
q16 6 52 18.5t57 20t53 23t53 31t44 40t38 53.5q20 36 26 83q7 60 -4.5 106t-31.5 71.5t-49.5 42.5t-50 23t-40.5 8h-2q-2 1 -3 1h-8h-6q-43 0 -81 -16q-88 -37 -137 -154.5t-49 -295.5q0 -71 11 -150q2 -16 4 -26q1 -8 5 -24z" />
    <glyph glyph-name="eacute" unicode="&#xe9;" horiz-adv-x="1163" 
d="M430 381q-11 -38 0 -76q4 -18 7 -28q0 -1 1.5 -5t2.5 -6q83 -175 264 -175q182 0 312 176l23 -13q-183 -279 -462 -279q-106 0 -198 38t-160 106t-107 169t-39 222q0 215 116.5 362t300.5 190q66 15 134 15q2 0 6.5 -0.5t6.5 -0.5q107 3 199 -35q19 -7 49 -23
q139 -73 187.5 -185t-10.5 -223q-31 -60 -86.5 -95t-121.5 -46t-129 -13t-129 -4.5t-101 -12.5l-1 -1q-29 -8 -48 -26q-3 -3 -4 -5q-7 -9 -12 -21q-1 -1 -1 -5zM395 1116h-32l389 347l139 -41zM403 381q0 9 2 20.5t10 34t30.5 44.5t56.5 38q1 1 4.5 2t5.5 2q4 2 10 4
q16 6 52 18.5t57 20t53 23t53 31t44 40t38 53.5q20 36 26 83q7 60 -4.5 106t-31.5 71.5t-49.5 42.5t-50 23t-40.5 8h-5q-2 0 -4 0.5t-4 0.5h-6q-43 0 -81 -16q-88 -37 -136.5 -154t-48.5 -296q0 -79 10 -150q2 -16 4 -26q1 -8 5 -24z" />
    <glyph glyph-name="ecircumflex" unicode="&#xea;" horiz-adv-x="1163" 
d="M430 381q-11 -38 0 -76q4 -17 7 -28q0 -1 1.5 -5t2.5 -6q82 -175 264 -175t312 176l23 -13q-183 -279 -462 -279q-106 0 -198 38t-160 106t-107 169t-39 222q0 215 116.5 362t300.5 190q66 15 134 15q2 0 6.5 -0.5t6.5 -0.5q107 3 199 -35q19 -7 49 -23
q139 -73 187.5 -185t-10.5 -223q-31 -60 -86.5 -95t-121.5 -46t-129 -13t-129 -4.5t-101 -12.5l-1 -1q-29 -8 -48 -26q-3 -3 -4 -5q-7 -9 -12 -21q-1 -1 -1 -5zM364 1115h-37l293 404l292 -404h-37l-255 247zM403 381q0 9 2 20.5t10 34t30.5 44.5t56.5 38q1 1 4.5 2t5.5 2
q4 2 10 4q16 6 52 18.5t57 20t53 23t53 31t44 40t38 53.5q20 36 26 83q7 60 -4.5 106t-31.5 71.5t-49.5 42.5t-50 23t-40.5 8h-1q-2 1 -3 1h-9h-6q-43 0 -81 -16q-88 -37 -137 -154.5t-49 -295.5q0 -71 11 -150q2 -16 4 -26q1 -8 5 -24z" />
    <glyph glyph-name="edieresis" unicode="&#xeb;" horiz-adv-x="1163" 
d="M430 381q-11 -38 0 -76q4 -18 7 -28q0 -1 1.5 -5t2.5 -6q82 -175 264 -175t312 176l23 -13q-183 -279 -462 -279q-106 0 -198 38t-160 106t-107 169t-39 222q0 215 116.5 362t300.5 190q66 15 134 15q2 0 6.5 -0.5t6.5 -0.5q107 3 199 -35q19 -7 49 -23
q139 -73 187.5 -185t-10.5 -223q-31 -60 -86.5 -95t-121.5 -46t-129 -13t-129 -4.5t-101 -12.5l-1 -1q-29 -8 -48 -26q-3 -3 -4 -5q-7 -9 -12 -21q-1 -1 -1 -5zM459 1128q-35 0 -60.5 25.5t-25.5 60.5q0 27 14 49t39 32q54 23 95 -18q19 -19 24 -45t-5 -51t-32 -39t-49 -14z
M403 381q0 9 2 20.5t10 34t30.5 44.5t56.5 38q1 1 4.5 2t5.5 2q4 2 10 4q16 6 52 18.5t57 20t53 23t53 31t44 40t38 53.5q20 36 26 83q7 60 -4.5 106t-31.5 71.5t-49.5 42.5t-50 23t-40.5 8h-2q-2 1 -3 1h-8h-6q-43 0 -81 -16q-88 -37 -136.5 -154t-48.5 -296q0 -79 10 -150
q2 -16 4 -26q1 -8 5 -24zM770 1128q-35 1 -59 26.5t-24 60.5t24 60.5t59 26.5q36 0 61.5 -25.5t25.5 -61.5t-25.5 -61.5t-61.5 -25.5z" />
    <glyph glyph-name="igrave" unicode="&#xec;" horiz-adv-x="774" 
d="M650 1087h-33l-496 305l140 41zM264 1054q119 0 203.5 -84.5t84.5 -203.5v-766h-288v1054z" />
    <glyph glyph-name="iacute" unicode="&#xed;" horiz-adv-x="774" 
d="M650 1422l-497 -306h-32l389 347zM371 970q84 -84 84 -204v-766h-287v1054q119 0 203 -84z" />
    <glyph glyph-name="icircumflex" unicode="&#xee;" horiz-adv-x="829" 
d="M705 1013h-36l-256 247l-256 -247h-36l292 404zM594 766v-766h-288v1054q119 0 203.5 -84.5t84.5 -203.5z" />
    <glyph glyph-name="idieresis" unicode="&#xef;" horiz-adv-x="727" 
d="M292 1259q-1 -35 -26 -60t-60 -26q-35 1 -60 26.5t-25 60.5t25 60.5t60 26.5q36 -1 61 -26.5t25 -61.5zM535 766v-766h-288v1054q119 0 203.5 -84.5t84.5 -203.5zM579 1321q25 -27 25 -62q0 -26 -15 -48t-40 -32q-53 -21 -94 20q-19 19 -24 45t6 50t33 38.5t48 14.5
q37 0 61 -26z" />
    <glyph glyph-name="ntilde" unicode="&#xf1;" horiz-adv-x="1216" 
d="M1103 705v-704h-288v732q0 256 -185 256q-116 0 -227 -111v-877h-288v934h55q33 -40 69.5 -56.5t64.5 -12t51 15t35 22.5l13 11q80 80 161.5 122.5t193.5 42.5q168 0 256.5 -93t88.5 -282zM185 1161l-10 4q20 62 48.5 107t58 67.5t60.5 35.5t58 13.5t48.5 -1.5t33.5 -7
l13 -4l203 -95q23 -10 60 -11.5t77.5 6.5t76.5 34.5t51 67.5l10 -4q-20 -63 -49 -108.5t-58.5 -68t-60.5 -35.5t-58.5 -13t-49 2.5t-33.5 6.5l-13 5l-199 93q-24 11 -60 14t-76.5 -3t-76.5 -33.5t-54 -72.5z" />
    <glyph glyph-name="ograve" unicode="&#xf2;" horiz-adv-x="1269" 
d="M1169 697q74 -237 -34.5 -432.5t-343.5 -269.5q-114 -38 -223 -30t-199.5 51t-161.5 128.5t-108 204.5q-74 237 34 432.5t344 269.5q114 38 223 30t199.5 -51t161.5 -128.5t108 -204.5zM792 24q120 38 141 192.5t-52 375.5q-73 231 -181.5 349t-225.5 81
q-120 -38 -140 -193.5t54 -378.5q72 -229 180 -345.5t224 -80.5zM898 1112h-32l-497 305l140 41z" />
    <glyph glyph-name="oacute" unicode="&#xf3;" horiz-adv-x="1269" 
d="M1169 700q74 -237 -34.5 -432.5t-343.5 -269.5q-114 -38 -223 -30t-199.5 51t-161.5 128.5t-108 204.5q-74 237 34 432.5t344 269.5q114 38 223 30t199.5 -51t161.5 -128.5t108 -204.5zM388 453q72 -229 180 -345.5t224 -80.5q120 38 141 192.5t-52 375.5
q-73 231 -181.5 348.5t-225.5 80.5q-120 -38 -140 -193t54 -378zM362 1085h-32l389 346l140 -41z" />
    <glyph glyph-name="ocircumflex" unicode="&#xf4;" horiz-adv-x="1269" 
d="M1169 697q74 -237 -34.5 -432.5t-343.5 -269.5q-114 -38 -223 -30t-199.5 51t-161.5 128.5t-108 204.5q-74 237 34 432.5t344 269.5q114 38 223 30t199.5 -51t161.5 -128.5t108 -204.5zM792 24q120 38 141 192.5t-52 375.5q-73 231 -181.5 349t-225.5 81
q-120 -38 -140 -193.5t54 -378.5q72 -229 180 -345.5t224 -80.5zM378 1162h-37l293 404l292 -404h-36l-256 247z" />
    <glyph glyph-name="otilde" unicode="&#xf5;" horiz-adv-x="1269" 
d="M1169 697q74 -237 -34.5 -432.5t-343.5 -269.5q-114 -38 -223 -30t-199.5 51t-161.5 128.5t-108 204.5q-74 237 34 432.5t344 269.5q114 38 223 30t199.5 -51t161.5 -128.5t108 -204.5zM193 1177l-10 4q20 62 48 107t57 67.5t60 35.5t57.5 13.5t48 -1.5t34.5 -7l12 -4
l198 -95q23 -10 59.5 -11.5t76.5 6.5t75.5 34.5t50.5 67.5l12 -4q-20 -63 -48.5 -108.5t-58 -68t-60 -35.5t-57.5 -13t-48 2.5t-34 6.5l-12 5l-199 92q-24 11 -59 14t-75 -2.5t-75.5 -33t-52.5 -72.5zM792 24q120 38 141 192.5t-52 375.5q-73 231 -181.5 349t-225.5 81
q-120 -38 -140 -193.5t54 -378.5q72 -229 180 -345.5t224 -80.5z" />
    <glyph glyph-name="odieresis" unicode="&#xf6;" horiz-adv-x="1269" 
d="M1169 697q74 -237 -34.5 -432.5t-343.5 -269.5q-114 -38 -223 -30t-199.5 51t-161.5 128.5t-108 204.5q-74 237 34 432.5t344 269.5q114 38 223 30t199.5 -51t161.5 -128.5t108 -204.5zM792 24q120 38 141 192.5t-52 375.5q-73 231 -181.5 349t-225.5 81
q-120 -38 -140 -193.5t54 -378.5q72 -229 180 -345.5t224 -80.5zM330 1221q0 27 14.5 49.5t38.5 32.5q25 10 51 5t45 -24q41 -41 18 -95q-10 -25 -32.5 -39.5t-48.5 -14.5q-35 0 -60.5 25.5t-25.5 60.5zM644 1222q0 35 24.5 60t59.5 27q50 2 76 -43q26 -44 0 -88
q-26 -45 -76 -43q-35 2 -59.5 27t-24.5 60z" />
    <glyph glyph-name="oslash" unicode="&#xf8;" horiz-adv-x="1359" 
d="M1050 947q108 -105 151 -250q74 -237 -34.5 -432.5t-343.5 -269.5q-163 -51 -311 -18t-251 143l-151 -158l-18 17l152 159q-79 94 -114 211q-74 237 34 432.5t344 269.5q148 46 284 23t239 -111l189 199l18 -17zM419 450q7 -23 33 -94l392 412q-70 147 -158.5 215
t-180.5 39q-120 -38 -140 -193.5t54 -378.5zM913 592q-24 80 -57 152l-394 -413q72 -173 167 -255.5t195 -51.5q120 38 141 192.5t-52 375.5z" />
    <glyph glyph-name="ugrave" unicode="&#xf9;" horiz-adv-x="1189" 
d="M1098 764v-769h-239l-50 152q-2 -1 -2 -2q-153 -173 -349 -173q-77 -1 -153 25q-194 73 -194 350v704q15 0 22 -1q107 -8 183 -84q78 -76 84 -187v-9q0 -1 0.5 -3t0.5 -3v-78v-365q0 -23 0.5 -38t4 -45t10 -50.5t20 -46t32 -41.5t48 -27t67.5 -11q109 0 225 127l1 1v861
q14 0 21 -1q107 -8 183 -84q78 -76 84 -187v-9q0 -1 0.5 -3t0.5 -3zM897 1095h-32l-497 305l140 41z" />
    <glyph glyph-name="uacute" unicode="&#xfa;" horiz-adv-x="1189" 
d="M1098 764v-769h-239l-50 152q-1 -1 -1 -2q-153 -173 -350 -173q-77 -1 -153 25q-194 73 -194 350v704q16 0 23 -1q106 -8 182 -84q78 -76 84 -187q0 -2 0.5 -5t0.5 -4v-6v-78v-365q0 -23 0.5 -38t4 -45t10 -50.5t20 -46t32 -41.5t48 -27t67.5 -11q109 0 225 127l1 1v861
q14 0 21 -1q107 -8 183 -84q78 -76 84 -187v-9q0 -1 0.5 -3t0.5 -3zM347 1095h-32l389 346l140 -41z" />
    <glyph glyph-name="ucircumflex" unicode="&#xfb;" horiz-adv-x="1189" 
d="M1098 764v-769h-239l-50 152q-2 -1 -2 -2q-153 -173 -349 -173q-77 -1 -153 25q-194 73 -194 350v704q16 0 23 -1q106 -8 182 -84q78 -76 84 -187q0 -2 0.5 -5t0.5 -4v-6v-78v-365q0 -23 0.5 -38t4 -45t10 -50.5t20 -46t32 -41.5t48 -27t67.5 -11q109 0 225 127l1 1v861
q14 0 21 -1q107 -8 183 -84q78 -76 84 -187v-9q0 -1 0.5 -3t0.5 -3zM324 1095h-37l292 404l293 -404h-37l-256 247z" />
    <glyph glyph-name="udieresis" unicode="&#xfc;" horiz-adv-x="1189" 
d="M1098 764v-769h-239l-50 152q-2 -1 -2 -2q-153 -173 -349 -173q-77 -1 -153 25q-194 73 -194 350v704q15 0 22 -1q107 -8 183 -84q78 -76 84 -187v-9q0 -1 0.5 -3t0.5 -3v-78v-365q0 -23 0.5 -38t4 -45t10 -50.5t20 -46t32 -41.5t48 -27t67.5 -11q109 0 225 127l1 1v861
q14 0 21 -1q107 -8 183 -84q78 -76 84 -187v-9q0 -1 0.5 -3t0.5 -3zM411 1123q-35 1 -59 26.5t-24 60.5t24 60.5t59 26.5q36 0 61.5 -25.5t25.5 -61.5t-25.5 -61.5t-61.5 -25.5zM725 1123q-36 0 -61.5 25.5t-25.5 61.5t25.5 61.5t61.5 25.5t61.5 -25.5t25.5 -61.5
t-25.5 -61.5t-61.5 -25.5z" />
    <glyph glyph-name="yacute" unicode="&#xfd;" horiz-adv-x="1032" 
d="M794 1051l216 -1q-15 -28 -28 -54.5t-28.5 -59t-25.5 -53.5t-28.5 -62t-26.5 -58.5t-30.5 -69.5t-29.5 -68t-35 -81t-36 -84l-271 -625q-33 -81 -89 -149q-73 -86 -181 -123q-45 -15 -92 -21q-45 -5 -81 -5l23 217q161 -179 306 -25l1 1q0 2 1 2q1 1 3 2.5t3 2.5
q37 43 71 105l1 3l1 1l55 126l-473 1079h184q58 0 107 -32t72 -85l263 -603l63 143q40 93 60.5 188.5t23.5 148.5t1.5 137t-0.5 103zM322 1095h-33l389 346l140 -41z" />
    <glyph glyph-name="ydieresis" unicode="&#xff;" horiz-adv-x="1032" 
d="M794 1051l217 -1q-85 -163 -269 -590l-271 -625q-33 -81 -89 -149q-73 -86 -181 -123q-45 -15 -92 -21q-45 -5 -81 -5l23 217q161 -179 306 -25l1 1q0 2 1 2q1 1 3 2.5t3 2.5q37 43 71 105l1 3l1 1l55 126l-473 1079h184q58 0 107 -32t72 -85l263 -603l63 143
q40 93 60.5 188.5t23.5 148.5t1.5 137t-0.5 103zM396 1134q-36 1 -60.5 26.5t-24.5 60.5q0 36 24.5 61t60.5 26q36 -1 61 -26.5t25 -60.5t-25 -60.5t-61 -26.5zM708 1134q-35 2 -59.5 27t-24.5 60t24.5 60t59.5 27q35 -1 60.5 -26.5t25.5 -60.5t-25.5 -60.5t-60.5 -26.5z
" />
    <glyph glyph-name="Aogonek" unicode="&#x104;" horiz-adv-x="1558" 
d="M1545 -273q-52 -32 -76.5 -45.5t-66.5 -28t-79 -14.5q-49 0 -95 12q-41 11 -74 35q-65 47 -63 125q0 70 45 123q40 46 94 70h-223l-207 480h-512q-24 -75 -19.5 -129t30 -107.5t54 -91t54 -79.5t28.5 -73h-431q79 143 141 275t172 381l375 873h8l660 -1529h-37
q-16 -3 -31 -12q-26 -15 -44 -38q-21 -26 -31 -53q-11 -28 -11 -58q-3 -30 11.5 -56.5t40.5 -40.5q137 -53 279 -5zM302 521h484l-243 565l-190 -443q-51 -121 -51 -122z" />
    <glyph glyph-name="aogonek" unicode="&#x105;" horiz-adv-x="1323" 
d="M1289 -276q-107 -66 -231 -68q-48 0 -94 12q-42 11 -73 34q-64 46 -62 124q0 69 45 122q17 22 41 38q-47 4 -85 30.5t-57 69.5q-156 -113 -347 -111q-186 0 -298 90t-112 239q0 69 30 129t77.5 103t105 80.5t115 68.5t105 60t77.5 61.5t30 66.5q0 25 -14.5 44t-38.5 26
q-2 0 -5 1q-8 2 -20 4l-2 1q-30 4 -67 -1q-57 -8 -106 -41l-40 52q73 74 173 106.5t204 15.5q176 -24 290.5 -160.5t120.5 -341.5l-4 -375q0 -36 0.5 -52.5t5 -39.5t14 -33t27.5 -17.5t46 -7.5q13 0 39 4v-12q-82 -50 -178 -61q-12 -12 -17 -18q-20 -24 -30 -52
q-12 -31 -12 -58q-3 -29 11.5 -55t40.5 -40q138 -53 276 -5zM761 623l16 -2l-16 2q-1 73 -2.5 120t-6.5 100t-15 85.5t-26 62t-40.5 44.5t-57.5 20q-38 5 -65.5 -15.5t-55.5 -64.5q56 -6 91 -37.5t35 -84.5q0 -47 -30 -95t-72.5 -91.5t-85 -91t-72.5 -111.5t-30 -133
q0 -112 69 -179t186 -67q96 0 176 47l-1 1v1z" />
    <glyph glyph-name="Cacute" unicode="&#x106;" horiz-adv-x="1402" 
d="M1360 318q-90 -154 -243.5 -245t-332.5 -96h-40q-147 2 -272 56t-213 148t-137.5 227t-49.5 290q0 171 55 313t152.5 238t232.5 149t293 53q151 -2 290 -62t245 -168l-244 -218q-16 34 -36 88t-35 95t-38 87t-47 76t-60.5 50t-80.5 20q-96 0 -171 -51t-122 -141
t-71 -206.5t-24 -252.5q0 -328 131 -501t349 -173q134 -2 253 61.5t192 175.5zM638 1502h-32l389 346l140 -41z" />
    <glyph glyph-name="cacute" unicode="&#x107;" horiz-adv-x="1060" 
d="M1040 253q-174 -266 -439 -277h-40q-103 3 -192 42t-154.5 106.5t-103 167t-37.5 218.5q0 169 75 299.5t199.5 199t276.5 68.5q253 0 404 -173l-164 -144q-23 38 -49.5 99t-43 96.5t-48 63.5t-74.5 28q-124 0 -195 -124t-71 -342q0 -241 86 -365.5t235 -124.5
q183 0 312 176zM336 1096h-32l389 346l140 -41z" />
    <glyph glyph-name="Eogonek" unicode="&#x118;" horiz-adv-x="1239" 
d="M1176 -264q-106 -81 -245 -72q-113 7 -175 69q-68 68 -20 156q30 56 107 110h-710v1432h883l32 -268h-4q-11 7 -80.5 50t-92 56t-82.5 45.5t-93.5 44.5t-81.5 24t-88 12h-80v-608h2v-24q63 12 120 33t92.5 42t62.5 40.5t39 31.5l11 13h7l3 -347h-6q-39 48 -113 82.5
t-131 47.5t-87 12v-684h90q48 0 105 15.5t104.5 36t113.5 59t107 65t111 73.5h4l-45 -284h-94q-99 -49 -106 -126q-6 -66 57 -112q81 -60 208 -34q34 7 69 20z" />
    <glyph glyph-name="eogonek" unicode="&#x119;" horiz-adv-x="1163" 
d="M430 381q-11 -38 0 -76q4 -18 7 -28q0 -1 1.5 -5t2.5 -6q83 -175 264 -175q182 0 312 176l23 -13q-154 -235 -374 -272q-46 -22 -78 -63q-28 -41 -26 -92q-3 -29 11.5 -55t40.5 -40q139 -53 276 -6l19 -33q-105 -65 -231 -67q-48 0 -94 12q-42 11 -73 34q-64 46 -62 124
q0 57 30 102q34 51 86 78q-104 2 -193.5 40.5t-155.5 106.5t-104 168t-38 219q0 215 116.5 362t300.5 190q66 15 134 15q2 0 6.5 -0.5t6.5 -0.5q107 3 199 -35q19 -7 49 -23q139 -73 187.5 -185t-10.5 -223q-31 -60 -86.5 -95t-121.5 -46t-129 -13t-129 -4.5t-101 -12.5
l-1 -1q-29 -8 -48 -26q-3 -3 -4 -5q-7 -9 -12 -21q-1 -1 -1 -5zM403 381q0 9 2 20.5t10 34t30.5 44.5t56.5 38q1 1 4.5 2t5.5 2q4 2 10 4q16 6 52 18.5t57 20t53 23t53 31t44 40t38 53.5q20 36 26 83q7 60 -4.5 106t-31.5 71.5t-49.5 42.5t-50 23t-40.5 8h-2q-2 1 -3 1h-8
h-6q-43 0 -81 -16q-88 -37 -137 -154.5t-49 -295.5q0 -71 11 -150q2 -16 4 -26q1 -8 5 -24z" />
    <glyph glyph-name="dotlessi" unicode="&#x131;" horiz-adv-x="493" 
d="M102 1054q120 0 204 -84t84 -204v-766h-288v1054z" />
    <glyph glyph-name="Lslash" unicode="&#x141;" horiz-adv-x="1271" 
d="M1170 367l-69 -367h-813v665l-171 -68l-15 15l186 75v745h313v-620l236 95l14 -16l-250 -100v-756h28q29 0 64.5 11.5t84 40.5t85 51.5t102 72t96.5 73.5t105 82z" />
    <glyph glyph-name="lslash" unicode="&#x142;" horiz-adv-x="946" 
d="M617 757v-763h-291v570l-201 -132l-23 35l224 147v890q118 0 205 -85q83 -81 86 -197v-415l203 135l23 -35z" />
    <glyph glyph-name="Nacute" unicode="&#x143;" horiz-adv-x="1398" 
d="M1307 1432q-61 -259 -61 -626v-830h-25l-1070 1226v-577q0 -77 24.5 -154.5t61 -140.5t74 -120t69.5 -112.5t42 -97.5h-371q61 259 61 625v628l2 179v6l236 -6l857 -970v344q0 77 -25.5 154.5t-63.5 141t-77.5 120t-72.5 112.5t-43 98h382zM542 1833q-25 11 -63.5 14
t-81.5 -4t-82 -34.5t-57 -72.5l-12 5q29 85 75 138t91.5 68t86 17.5t65.5 -5.5l26 -8l214 -92q24 -11 64 -13t83.5 6t82 34.5t54.5 68.5l14 -6q-22 -63 -53 -108.5t-62.5 -68t-65 -35.5t-63 -13t-52.5 2.5t-36 7.5l-14 4z" />
    <glyph glyph-name="nacute" unicode="&#x144;" horiz-adv-x="1216" 
d="M1103 705v-704h-288v732q0 256 -185 256q-116 0 -227 -111v-877h-288v934h55q33 -40 69.5 -56.5t64.5 -12t51 15t35 22.5l13 11q80 80 161.5 122.5t193.5 42.5q168 0 256.5 -93t88.5 -282zM359 1085h-32l389 346l140 -41z" />
    <glyph glyph-name="OE" unicode="&#x152;" horiz-adv-x="2103" 
d="M2042 286l-45 -283h-903q-131 -53 -263.5 -59.5t-254.5 32.5t-228.5 131t-180.5 228q-107 207 -100.5 400.5t118 358t307.5 270.5q154 83 310.5 101t298.5 -31h876l32 -267h-4q-11 7 -80.5 50t-92 56t-82.5 45.5t-93.5 44.5t-81.5 24t-88 12h-81v-608h2v-24q70 6 129 24
t94 40.5t59.5 44t33.5 36.5l9 14h8l3 -346h-7q-20 48 -67.5 80t-104.5 43.5t-92.5 15t-65.5 2.5v-683h90q48 0 104.5 15.5t104.5 36t113.5 58.5t108 65t110.5 73h4zM1094 60v1018q-141 193 -296.5 260t-306.5 -10q-122 -66 -163.5 -188.5t-6.5 -279t136 -344.5
q137 -255 305.5 -377.5t331.5 -78.5z" />
    <glyph glyph-name="oe" unicode="&#x153;" horiz-adv-x="2015" 
d="M1283 369q-11 -40 -1 -76q1 -5 8 -28q0 -1 1.5 -5t2.5 -6v-1q83 -175 264 -175q84 0 165 43.5t147 133.5l23 -14q-182 -278 -463 -278q-115 -2 -218 46t-174 138q-106 -100 -247 -143q-114 -38 -223 -30t-199.5 51t-161.5 128.5t-108 204.5q-74 237 34 432.5t344 269.5
q176 56 335 12t261 -178q112 120 271 155q66 15 134 15h13q104 3 199 -36q11 -4 49 -22q139 -73 187.5 -185t-10.5 -223q-31 -60 -86.5 -95t-121.5 -46t-129 -13.5t-129 -5t-101 -12.5h-1q-29 -8 -48 -26l-5 -5q-6 -7 -11 -21q-1 -1 -1 -5zM792 33q120 38 141 192.5
t-52 375.5q-73 231 -181.5 348.5t-225.5 80.5q-120 -38 -140 -193t54 -378q72 -229 180 -345.5t224 -80.5zM1355 505q8 3 10 4q4 2 10 4q15 5 52 18t57 20.5t52.5 23t53 31.5t43.5 40.5t38 53.5q21 39 27 83q7 60 -4.5 106t-31.5 71.5t-49.5 42.5t-50 23t-40.5 8h-5
q-1 0 -4 0.5t-4 0.5h-6q-43 0 -81 -16q-88 -37 -137 -154.5t-49 -295.5q0 -72 11 -151q2 -16 4 -26q1 -6 5 -23q0 9 2 20t10 33.5t30.5 44.5t56.5 38z" />
    <glyph glyph-name="Sacute" unicode="&#x15a;" horiz-adv-x="1204" 
d="M1133 429q0 -84 -36.5 -165t-99 -144.5t-154 -102.5t-192.5 -39q-263 2 -513 66l23 350q41 -36 97.5 -94t99 -101t93.5 -86t103.5 -66.5t105.5 -23.5q100 0 158.5 62t58.5 159q0 69 -42 142.5t-99 112.5q-65 45 -227.5 114.5t-225.5 105.5q-46 26 -71.5 42.5t-56 43
t-45.5 53t-25.5 65t-10.5 87.5q0 90 36.5 172.5t98.5 143.5t150 97.5t186 36.5q88 0 195.5 -15t171.5 -31l64 -15l23 -347h-11q-25 73 -107 156t-183 140.5t-177 60.5q-97 4 -154.5 -44.5t-57.5 -145.5q0 -96 54.5 -158t155.5 -108q50 -23 139 -55.5t166 -65.5t134 -71
q85 -53 132 -142t43 -190zM334 1484h-32l389 346l139 -41z" />
    <glyph glyph-name="sacute" unicode="&#x15b;" horiz-adv-x="1011" 
d="M940 324q0 -72 -29 -135.5t-84 -112t-143 -77t-198 -28.5q-114 0 -236.5 27t-173.5 57l70 241q6 -8 32 -43.5t37 -50t38.5 -47.5t45 -49t46.5 -40t53.5 -36t56 -21t62.5 -9q113 0 176 49t63 130q0 36 -14.5 66t-34.5 50.5t-57.5 41.5t-66 33t-76.5 30l-86 32
q-36 14 -57 22.5t-60 28t-63.5 37t-56 45.5t-49.5 57.5t-30.5 69.5t-12.5 85q0 145 113.5 243t315.5 98q189 -2 361 -77l-63 -241q-16 18 -45.5 60.5t-56.5 78t-62 72t-77.5 58t-87.5 21.5q-101 0 -157.5 -47t-56.5 -119q0 -43 18 -76t60.5 -59.5t71.5 -39.5t91 -37
q7 -3 10 -4l84 -31q126 -51 184 -91q145 -101 145 -262zM275 1146h-32l389 346l140 -41z" />
    <glyph glyph-name="Scaron" unicode="&#x160;" horiz-adv-x="1204" 
d="M1133 429q0 -84 -36.5 -165t-99 -144.5t-154 -102.5t-192.5 -39q-263 2 -513 66l23 350q41 -36 97.5 -94t99 -101t93.5 -86t103.5 -66.5t105.5 -23.5q100 0 158.5 62t58.5 159q0 69 -42 142.5t-99 112.5q-65 45 -227.5 114.5t-225.5 105.5q-46 26 -71.5 42.5t-56 43
t-45.5 53t-25.5 65t-10.5 87.5q0 90 36.5 172.5t98.5 143.5t150 97.5t186 36.5q88 0 195.5 -15t171.5 -31l64 -15l23 -347h-11q-25 73 -107 156t-183 140.5t-177 60.5q-97 4 -154.5 -44.5t-57.5 -145.5q0 -96 54.5 -158t155.5 -108q50 -23 139 -55.5t166 -65.5t134 -71
q85 -53 132 -142t43 -190zM577 1511l-292 404h36l256 -247l256 247h36z" />
    <glyph glyph-name="scaron" unicode="&#x161;" horiz-adv-x="1011" 
d="M940 324q0 -72 -29 -135.5t-84 -112t-143 -77t-198 -28.5q-114 0 -236.5 27t-173.5 57l70 241q5 -7 32 -43.5t37.5 -50t38 -47.5t45 -49.5t47 -40t53.5 -36t55.5 -20.5t62.5 -9q113 0 176 49t63 130q0 36 -14.5 66t-34.5 50.5t-57.5 41.5t-66 33t-76.5 30l-86 32
q-36 14 -57 22.5t-60 28t-63.5 37t-56 45.5t-49.5 57.5t-30.5 69.5t-12.5 85q0 145 113.5 243t315.5 98q189 -2 361 -77l-63 -241q-16 18 -45.5 60.5t-56.5 78t-62 72t-77.5 58t-87.5 21.5q-101 0 -157.5 -47t-56.5 -119q0 -43 18 -76t60.5 -59.5t71.5 -39.5t91 -37
q7 -3 10 -4l84 -31q126 -51 184 -91q145 -101 145 -262zM486 1163l-292 404h36l256 -247l256 247h36z" />
    <glyph glyph-name="Ydieresis" unicode="&#x178;" horiz-adv-x="1241" 
d="M1235 1425q-164 -273 -333 -582l-118 -216v-629h-311v588l-471 839h355l414 -743l98 179q40 74 53 146.5t3.5 131t-24.5 108.5t-28 98t-9 80h371zM460 1502q-36 0 -61.5 25.5t-25.5 61.5t25.5 61.5t61.5 25.5t61.5 -25.5t25.5 -61.5t-25.5 -61.5t-61.5 -25.5zM771 1502
q-35 0 -60.5 25.5t-25.5 60.5q0 26 14.5 48.5t39.5 32.5q54 23 95 -18q19 -19 24 -45t-5 -51q-10 -24 -32.5 -38.5t-49.5 -14.5z" />
    <glyph glyph-name="Zacute" unicode="&#x179;" horiz-adv-x="1236" 
d="M1194 342l-65 -343h-1084v8l751 1388h-86q-51 0 -104 -8.5t-95 -19.5t-92.5 -32.5t-82.5 -37t-79.5 -44.5t-70 -43.5t-67.5 -45.5t-58 -40h-4l51 307h1054v-8l-751 -1389h118q68 0 136.5 15.5t120.5 36.5t116 58.5t101 63.5t99 71t88 63h4zM436 1498h-32l389 346l140 -40
z" />
    <glyph glyph-name="zacute" unicode="&#x17a;" horiz-adv-x="1021" 
d="M969 210l-26 -106l-24 -109h-874v9l557 1059h-18q-92 0 -185 -25t-217.5 -77t-136.5 -56l12 89l21 100h855v-8l-557 -1058h18q91 0 196 32t226.5 85.5t152.5 64.5zM371 1135h-32l389 346l140 -41z" />
    <glyph glyph-name="Zdot" unicode="&#x17b;" horiz-adv-x="1236" 
d="M1194 342l-65 -343h-1084v8l751 1388h-86q-51 0 -104 -8.5t-95 -19.5t-92.5 -32.5t-82.5 -37t-79.5 -44.5t-70 -43.5t-67.5 -45.5t-58 -40h-4l51 307h1054v-8l-751 -1389h118q68 0 136.5 15.5t120.5 36.5t116 58.5t101 63.5t99 71t88 63h4zM562 1586q-32 30 -32 77
q0 44 31.5 76t75.5 32t75.5 -31.5t32.5 -75.5t-30.5 -75.5t-75.5 -32.5q-45 0 -77 30z" />
    <glyph glyph-name="zdot" unicode="&#x17c;" horiz-adv-x="1021" 
d="M969 208l-26 -106l-24 -108h-874v8l557 1059h-18q-92 0 -185 -25t-217.5 -77t-136.5 -56l12 89l21 100h855v-8l-557 -1058h18q91 0 196 32t226.5 85.5t152.5 64.5zM482 1192q-32 30 -32 76q0 44 31 76t75 32t76 -31t33 -75t-30.5 -76t-75.5 -33q-44 0 -77 31z" />
    <glyph glyph-name="zcaron" unicode="&#x17e;" horiz-adv-x="1021" 
d="M969 210l-26 -106l-24 -109h-874v9l557 1059h-18q-92 0 -185 -25t-217.5 -77t-136.5 -56l12 89l21 100h855v-8l-557 -1058h18q91 0 196 32t226.5 85.5t152.5 64.5zM579 1170l-293 405h37l256 -248l256 248h36z" />
    <glyph glyph-name="endash" unicode="&#x2013;" horiz-adv-x="751" 
d="M103 596h546v-71h-547z" />
    <glyph glyph-name="emdash" unicode="&#x2014;" horiz-adv-x="1048" 
d="M103 592h843l-1 -71h-843z" />
    <glyph glyph-name="quoteright" unicode="&#x2019;" horiz-adv-x="524" 
d="M305 1398q54 -37 84.5 -94.5t30.5 -122.5q0 -57 -28 -111t-75.5 -96.5t-97.5 -74.5t-107 -57l-10 14q62 35 95.5 87t33.5 110q-6 97 -78 159q-34 32 -37 79t27 84t76.5 43.5t85.5 -20.5z" />
    <glyph glyph-name="quotedblleft" unicode="&#x201c;" horiz-adv-x="921" 
d="M689 1240q6 -98 79 -161q32 -31 36.5 -75.5t-21.5 -81.5l-1 -1q-28 -40 -77 -48t-89 20q-55 37 -85.5 95t-30.5 124q0 57 28 110.5t75 96t98 74.5t107 57l9 -14q-62 -35 -95 -86.5t-33 -109.5zM420 1436q-62 -35 -96 -86.5t-34 -109.5q6 -99 79 -162q34 -32 37.5 -78.5
t-26.5 -83.5t-76.5 -43.5t-84.5 20.5q-55 37 -86 95t-31 124q0 57 28 110.5t74.5 96t97.5 74.5t108 57z" />
    <glyph glyph-name="quotedblright" unicode="&#x201d;" horiz-adv-x="921" 
d="M305 1398q54 -37 84.5 -94.5t30.5 -122.5q0 -57 -28 -111t-75.5 -96.5t-97.5 -74.5t-107 -57l-10 14q62 35 95.5 87t33.5 110q-6 97 -78 159q-32 31 -36.5 75t20.5 81l1 1q27 39 77 49q48 9 90 -20zM704 1398q53 -37 83 -94.5t30 -122.5q0 -58 -28 -111.5t-74.5 -96
t-97.5 -74.5t-108 -57l-9 14q62 35 96 87t34 110q-5 97 -78 159q-35 32 -38 79t27 84t77 43.5t86 -20.5z" />
    <glyph glyph-name="bullet" unicode="&#x2022;" horiz-adv-x="862" 
d="M744 518q42 -129 -21 -220.5t-193 -91.5t-250 91t-162 221t19.5 220.5t191.5 90.5q132 0 252.5 -90.5t162.5 -220.5z" />
    <glyph glyph-name="ellipsis" unicode="&#x2026;" horiz-adv-x="1251" 
d="M184 252q37 15 75.5 7t66.5 -36q38 -38 38 -92t-39 -93q-28 -28 -66.5 -35.5t-75.5 7.5t-59 48t-22 73t22.5 73t59.5 48zM580 252q37 15 76 7t67 -36q38 -38 38 -92t-39 -93q-28 -28 -67 -35.5t-76 7.5t-58.5 48t-21.5 73t22 73t59 48zM1111 223q38 -38 38 -92t-39 -93
q-28 -28 -67 -35.5t-76 7.5t-58.5 48t-21.5 73t22 73t59 48t76 7t67 -36z" />
    <glyph glyph-name="guilsinglleft" unicode="&#x2039;" horiz-adv-x="653" 
d="M373 582l177 -342l-14 -11l-434 369l1 11l417 346l20 -18z" />
    <glyph glyph-name="guilsinglright" unicode="&#x203a;" horiz-adv-x="653" 
d="M117 949l433 -369l-1 -11l-417 -347l-19 18l167 356l-178 341z" />
    <glyph glyph-name="Euro" unicode="&#x20ac;" horiz-adv-x="1406" 
d="M921 89q209 0 348 197l21 -16q-183 -299 -491 -299q-244 0 -411 167.5t-197 442.5q-4 50 -2 126h-87l1 35h87q2 34 3 56h-90v37h92l1 9q40 281 218 443.5t435 162.5q133 0 251.5 -60t202.5 -145l-177 -258q-14 31 -39.5 100t-46.5 117.5t-51 102.5t-67 82.5t-79 28.5
q-101 0 -173.5 -78t-109.5 -204t-45 -292q0 -2 -0.5 -5t-0.5 -4h395v-37h-397q-1 -20 -1 -56h406l-1 -35h-405q0 -60 11 -126q28 -242 132 -367t267 -125z" />
    </font>
</defs>
</svg>
